<svg xmlns="http://www.w3.org/2000/svg" width="500" height="500" viewBox="0 0 500 500"><rect x="0" y="0" width="500" height="500" fill="#ffffff"/><g transform="translate(108,76)translate(138.5,174)rotate(0)translate(-138.5,-174) scale(1.0000144406417422,1.0000144406417422)" opacity="1"><defs class="defs"/><path fill="#152C29" d="M138.5,9.238l130.496,75.344v178.955L138.5,338.879L8,263.537V84.582L138.5,9.238 M138.5,0L0,79.963v188.193&#10;&#9;l138.5,79.961l138.496-79.961V79.963L138.5,0L138.5,0z M138.5,331.85L14.498,260.258v-172.4L138.5,16.269l123.998,71.589v172.4&#10;&#9;L138.5,331.85z M18.498,257.948l120.002,69.28l119.998-69.28V90.167L138.5,20.888L18.498,90.167V257.948z" class="color c1"/></g><g transform="translate(133,284)translate(113.5,26.5)rotate(0)translate(-113.5,-26.5)" opacity="1"><path transform="translate(28,0)rotate(0)" d="M16.70 20L5.50 20L5.50 18.98L6.30 18.98L6.30 18.98Q6.51 18.98 6.69 18.94L6.69 18.94L6.69 18.94Q6.87 18.90 7.00 18.77L7.00 18.77L7.00 18.77Q7.13 18.64 7.21 18.39L7.21 18.39L7.21 18.39Q7.28 18.15 7.28 17.74L7.28 17.74L7.28 8.60L7.28 8.60Q7.28 8.19 7.21 7.95L7.21 7.95L7.21 7.95Q7.13 7.71 7.00 7.58L7.00 7.58L7.00 7.58Q6.87 7.45 6.69 7.40L6.69 7.40L6.69 7.40Q6.51 7.36 6.30 7.36L6.30 7.36L5.50 7.36L5.50 6.35L12.10 6.35L12.10 7.36L11.29 7.36L11.29 7.36Q11.10 7.36 10.92 7.40L10.92 7.40L10.92 7.40Q10.73 7.45 10.60 7.57L10.60 7.57L10.60 7.57Q10.47 7.69 10.39 7.92L10.39 7.92L10.39 7.92Q10.31 8.15 10.31 8.53L10.31 8.53L10.31 18.83L13.87 18.83L13.87 18.83Q14.54 18.83 14.91 18.41L14.91 18.41L14.91 18.41Q15.29 17.98 15.46 17.17L15.46 17.17L15.76 15.73L16.84 15.73L16.70 20ZM22.81 13.45L22.81 18.83L26.64 18.83L26.64 18.83Q26.93 18.83 27.13 18.73L27.13 18.73L27.13 18.73Q27.34 18.62 27.49 18.42L27.49 18.42L27.49 18.42Q27.64 18.23 27.72 17.96L27.72 17.96L27.72 17.96Q27.81 17.69 27.86 17.38L27.86 17.38L28.01 16.48L29.33 16.48L29.19 20L17.99 20L17.99 18.98L18.80 18.98L18.80 18.98Q19.00 18.98 19.18 18.95L19.18 18.95L19.18 18.95Q19.36 18.91 19.49 18.79L19.49 18.79L19.49 18.79Q19.63 18.67 19.70 18.45L19.70 18.45L19.70 18.45Q19.78 18.22 19.78 17.84L19.78 17.84L19.78 8.60L19.78 8.60Q19.78 8.19 19.70 7.95L19.70 7.95L19.70 7.95Q19.63 7.71 19.50 7.58L19.50 7.58L19.50 7.58Q19.37 7.45 19.19 7.40L19.19 7.40L19.19 7.40Q19.01 7.36 18.80 7.36L18.80 7.36L17.99 7.36L17.99 6.35L28.61 6.35L28.68 9.87L27.35 9.87L27.25 8.97L27.25 8.97Q27.18 8.27 26.90 7.89L26.90 7.89L26.90 7.89Q26.62 7.52 26.03 7.52L26.03 7.52L22.81 7.52L22.81 12.30L27.35 12.30L27.35 13.45L22.81 13.45ZM38.75 15.51L34.10 15.51L33.55 17.15L33.55 17.15Q33.48 17.39 33.40 17.70L33.40 17.70L33.40 17.70Q33.32 18.01 33.32 18.25L33.32 18.25L33.32 18.25Q33.32 18.43 33.40 18.57L33.40 18.57L33.40 18.57Q33.47 18.71 33.59 18.80L33.59 18.80L33.59 18.80Q33.71 18.89 33.87 18.94L33.87 18.94L33.87 18.94Q34.02 18.98 34.19 18.98L34.19 18.98L34.99 18.98L34.99 20L30.02 20L30.02 18.98L30.25 18.98L30.25 18.98Q30.50 18.98 30.71 18.93L30.71 18.93L30.71 18.93Q30.92 18.87 31.10 18.72L31.10 18.72L31.10 18.72Q31.29 18.56 31.45 18.29L31.45 18.29L31.45 18.29Q31.61 18.02 31.78 17.59L31.78 17.59L35.92 6.35L38.55 6.35L42.54 17.61L42.54 17.61Q42.68 18.01 42.84 18.28L42.84 18.28L42.84 18.28Q42.99 18.54 43.17 18.70L43.17 18.70L43.17 18.70Q43.35 18.85 43.56 18.92L43.56 18.92L43.56 18.92Q43.76 18.98 43.99 18.98L43.99 18.98L44.33 18.98L44.33 20L38.02 20L38.02 18.98L38.77 18.98L38.77 18.98Q38.91 18.98 39.06 18.94L39.06 18.94L39.06 18.94Q39.21 18.90 39.33 18.81L39.33 18.81L39.33 18.81Q39.44 18.72 39.52 18.58L39.52 18.58L39.52 18.58Q39.59 18.44 39.59 18.25L39.59 18.25L39.59 18.25Q39.59 18.01 39.54 17.80L39.54 17.80L39.54 17.80Q39.48 17.58 39.42 17.42L39.42 17.42L38.75 15.51ZM38.37 14.34L37.36 11.21L37.36 11.21Q37.26 10.88 37.15 10.52L37.15 10.52L37.15 10.52Q37.04 10.16 36.94 9.79L36.94 9.79L36.94 9.79Q36.83 9.42 36.73 9.05L36.73 9.05L36.73 9.05Q36.63 8.68 36.56 8.34L36.56 8.34L36.56 8.34Q36.48 8.63 36.36 8.98L36.36 8.98L36.36 8.98Q36.25 9.32 36.13 9.69L36.13 9.69L36.13 9.69Q36.00 10.05 35.87 10.41L35.87 10.41L35.87 10.41Q35.75 10.78 35.64 11.11L35.64 11.11L34.51 14.34L38.37 14.34ZM44.87 20L44.87 18.98L45.67 18.98L45.67 18.98Q45.86 18.98 46.04 18.95L46.04 18.95L46.04 18.95Q46.22 18.91 46.35 18.79L46.35 18.79L46.35 18.79Q46.49 18.67 46.57 18.45L46.57 18.45L46.57 18.45Q46.65 18.22 46.65 17.84L46.65 17.84L46.65 8.53L46.65 8.53Q46.65 8.15 46.57 7.92L46.57 7.92L46.57 7.92Q46.49 7.69 46.35 7.57L46.35 7.57L46.35 7.57Q46.22 7.45 46.04 7.40L46.04 7.40L46.04 7.40Q45.86 7.36 45.67 7.36L45.67 7.36L44.87 7.36L44.87 6.35L51.03 6.35L51.03 6.35Q53.73 6.35 55.00 7.26L55.00 7.26L55.00 7.26Q56.26 8.17 56.26 9.89L56.26 9.89L56.26 9.89Q56.26 10.65 56.04 11.24L56.04 11.24L56.04 11.24Q55.81 11.82 55.45 12.26L55.45 12.26L55.45 12.26Q55.08 12.70 54.61 13.00L54.61 13.00L54.61 13.00Q54.14 13.31 53.66 13.50L53.66 13.50L55.94 17.42L55.94 17.42Q56.18 17.83 56.41 18.13L56.41 18.13L56.41 18.13Q56.64 18.42 56.86 18.61L56.86 18.61L56.86 18.61Q57.09 18.81 57.34 18.89L57.34 18.89L57.34 18.89Q57.58 18.98 57.85 18.98L57.85 18.98L57.92 18.98L57.92 20L57.30 20L57.30 20Q56.44 20 55.80 19.93L55.80 19.93L55.80 19.93Q55.16 19.87 54.68 19.68L54.68 19.68L54.68 19.68Q54.20 19.49 53.85 19.15L53.85 19.15L53.85 19.15Q53.50 18.81 53.20 18.28L53.20 18.28L50.93 14.07L49.66 14.07L49.66 17.84L49.66 17.84Q49.66 18.22 49.74 18.45L49.74 18.45L49.74 18.45Q49.82 18.67 49.96 18.79L49.96 18.79L49.96 18.79Q50.09 18.91 50.27 18.95L50.27 18.95L50.27 18.95Q50.45 18.98 50.64 18.98L50.64 18.98L51.46 18.98L51.46 20L44.87 20ZM49.66 7.48L49.66 12.96L50.74 12.96L50.74 12.96Q51.40 12.96 51.84 12.79L51.84 12.79L51.84 12.79Q52.29 12.61 52.55 12.26L52.55 12.26L52.55 12.26Q52.82 11.91 52.93 11.38L52.93 11.38L52.93 11.38Q53.05 10.85 53.05 10.15L53.05 10.15L53.05 10.15Q53.05 9.43 52.92 8.92L52.92 8.92L52.92 8.92Q52.79 8.42 52.51 8.10L52.51 8.10L52.51 8.10Q52.23 7.77 51.78 7.63L51.78 7.63L51.78 7.63Q51.33 7.48 50.70 7.48L50.70 7.48L49.66 7.48ZM70.81 20L69.05 20L61.59 9.47L61.59 17.74L61.59 17.74Q61.59 18.15 61.67 18.39L61.67 18.39L61.67 18.39Q61.75 18.64 61.88 18.77L61.88 18.77L61.88 18.77Q62.01 18.90 62.19 18.94L62.19 18.94L62.19 18.94Q62.38 18.98 62.57 18.98L62.57 18.98L63.37 18.98L63.37 20L58.38 20L58.38 18.98L59.18 18.98L59.18 18.98Q59.39 18.98 59.57 18.94L59.57 18.94L59.57 18.94Q59.74 18.90 59.88 18.77L59.88 18.77L59.88 18.77Q60.01 18.64 60.09 18.39L60.09 18.39L60.09 18.39Q60.16 18.15 60.16 17.74L60.16 17.74L60.16 8.53L60.16 8.53Q60.16 8.15 60.08 7.92L60.08 7.92L60.08 7.92Q60.00 7.69 59.87 7.57L59.87 7.57L59.87 7.57Q59.73 7.45 59.56 7.40L59.56 7.40L59.56 7.40Q59.38 7.36 59.18 7.36L59.18 7.36L58.38 7.36L58.38 6.35L62.63 6.35L69.38 15.89L69.38 8.53L69.38 8.53Q69.38 8.15 69.30 7.92L69.30 7.92L69.30 7.92Q69.22 7.69 69.08 7.57L69.08 7.57L69.08 7.57Q68.95 7.45 68.77 7.40L68.77 7.40L68.77 7.40Q68.59 7.36 68.40 7.36L68.40 7.36L67.59 7.36L67.59 6.35L72.59 6.35L72.59 7.36L71.78 7.36L71.78 7.36Q71.59 7.36 71.41 7.40L71.41 7.40L71.41 7.40Q71.23 7.45 71.10 7.58L71.10 7.58L71.10 7.58Q70.96 7.71 70.89 7.95L70.89 7.95L70.89 7.95Q70.81 8.19 70.81 8.60L70.81 8.60L70.81 20ZM80.04 20L73.44 20L73.44 18.98L74.25 18.98L74.25 18.98Q74.46 18.98 74.64 18.94L74.64 18.94L74.64 18.94Q74.82 18.90 74.95 18.77L74.95 18.77L74.95 18.77Q75.08 18.64 75.15 18.39L75.15 18.39L75.15 18.39Q75.23 18.15 75.23 17.74L75.23 17.74L75.23 8.61L75.23 8.61Q75.23 8.20 75.15 7.96L75.15 7.96L75.15 7.96Q75.08 7.72 74.95 7.59L74.95 7.59L74.95 7.59Q74.82 7.46 74.64 7.41L74.64 7.41L74.64 7.41Q74.46 7.37 74.25 7.37L74.25 7.37L73.44 7.37L73.44 6.35L80.04 6.35L80.04 7.37L79.24 7.37L79.24 7.37Q79.04 7.37 78.85 7.41L78.85 7.41L78.85 7.41Q78.67 7.46 78.54 7.59L78.54 7.59L78.54 7.59Q78.41 7.72 78.34 7.96L78.34 7.96L78.34 7.96Q78.26 8.20 78.26 8.61L78.26 8.61L78.26 17.74L78.26 17.74Q78.26 18.15 78.34 18.39L78.34 18.39L78.34 18.39Q78.41 18.64 78.54 18.77L78.54 18.77L78.54 18.77Q78.67 18.90 78.85 18.94L78.85 18.94L78.85 18.94Q79.04 18.98 79.24 18.98L79.24 18.98L80.04 18.98L80.04 20ZM93.54 20L91.78 20L84.32 9.47L84.32 17.74L84.32 17.74Q84.32 18.15 84.40 18.39L84.40 18.39L84.40 18.39Q84.48 18.64 84.61 18.77L84.61 18.77L84.61 18.77Q84.74 18.90 84.92 18.94L84.92 18.94L84.92 18.94Q85.10 18.98 85.30 18.98L85.30 18.98L86.10 18.98L86.10 20L81.11 20L81.11 18.98L81.91 18.98L81.91 18.98Q82.12 18.98 82.29 18.94L82.29 18.94L82.29 18.94Q82.47 18.90 82.61 18.77L82.61 18.77L82.61 18.77Q82.74 18.64 82.82 18.39L82.82 18.39L82.82 18.39Q82.89 18.15 82.89 17.74L82.89 17.74L82.89 8.53L82.89 8.53Q82.89 8.15 82.81 7.92L82.81 7.92L82.81 7.92Q82.73 7.69 82.60 7.57L82.60 7.57L82.60 7.57Q82.46 7.45 82.28 7.40L82.28 7.40L82.28 7.40Q82.11 7.36 81.91 7.36L81.91 7.36L81.11 7.36L81.11 6.35L85.35 6.35L92.10 15.89L92.10 8.53L92.10 8.53Q92.10 8.15 92.02 7.92L92.02 7.92L92.02 7.92Q91.94 7.69 91.81 7.57L91.81 7.57L91.81 7.57Q91.67 7.45 91.50 7.40L91.50 7.40L91.50 7.40Q91.32 7.36 91.12 7.36L91.12 7.36L90.32 7.36L90.32 6.35L95.31 6.35L95.31 7.36L94.51 7.36L94.51 7.36Q94.31 7.36 94.14 7.40L94.14 7.40L94.14 7.40Q93.96 7.45 93.82 7.58L93.82 7.58L93.82 7.58Q93.69 7.71 93.61 7.95L93.61 7.95L93.61 7.95Q93.54 8.19 93.54 8.60L93.54 8.60L93.54 20ZM103.72 20.19L103.72 20.19L103.72 20.19Q101.95 20.19 100.63 19.68L100.63 19.68L100.63 19.68Q99.31 19.18 98.43 18.25L98.43 18.25L98.43 18.25Q97.55 17.33 97.12 16.03L97.12 16.03L97.12 16.03Q96.69 14.74 96.69 13.16L96.69 13.16L96.69 13.16Q96.69 11.61 97.15 10.32L97.15 10.32L97.15 10.32Q97.61 9.03 98.51 8.11L98.51 8.11L98.51 8.11Q99.40 7.19 100.74 6.67L100.74 6.67L100.74 6.67Q102.07 6.16 103.83 6.16L103.83 6.16L103.83 6.16Q105.02 6.16 105.91 6.33L105.91 6.33L105.91 6.33Q106.80 6.50 107.40 6.80L107.40 6.80L107.40 6.80Q108.01 7.10 108.31 7.51L108.31 7.51L108.31 7.51Q108.60 7.91 108.60 8.38L108.60 8.38L108.60 8.38Q108.60 8.72 108.45 9.01L108.45 9.01L108.45 9.01Q108.29 9.30 107.97 9.53L107.97 9.53L107.97 9.53Q107.65 9.75 107.19 9.88L107.19 9.88L107.19 9.88Q106.74 10.00 106.13 10.00L106.13 10.00L106.13 10.00Q106.13 9.43 105.99 8.94L105.99 8.94L105.99 8.94Q105.85 8.45 105.56 8.11L105.56 8.11L105.56 8.11Q105.26 7.76 104.81 7.57L104.81 7.57L104.81 7.57Q104.37 7.38 103.76 7.38L103.76 7.38L103.76 7.38Q102.71 7.38 101.98 7.76L101.98 7.76L101.98 7.76Q101.25 8.15 100.79 8.88L100.79 8.88L100.79 8.88Q100.33 9.62 100.12 10.70L100.12 10.70L100.12 10.70Q99.91 11.78 99.91 13.16L99.91 13.16L99.91 13.16Q99.91 14.54 100.12 15.61L100.12 15.61L100.12 15.61Q100.34 16.68 100.83 17.41L100.83 17.41L100.83 17.41Q101.32 18.13 102.10 18.51L102.10 18.51L102.10 18.51Q102.88 18.89 104.01 18.89L104.01 18.89L104.01 18.89Q104.37 18.89 104.72 18.86L104.72 18.86L104.72 18.86Q105.08 18.83 105.41 18.76L105.41 18.76L105.41 15.95L105.41 15.95Q105.41 15.18 105.07 14.89L105.07 14.89L105.07 14.89Q104.72 14.59 104.05 14.59L104.05 14.59L103.80 14.59L103.80 13.58L109.81 13.58L109.81 14.59L109.56 14.59L109.56 14.59Q109.27 14.59 109.05 14.66L109.05 14.66L109.05 14.66Q108.84 14.73 108.70 14.89L108.70 14.89L108.70 14.89Q108.56 15.06 108.49 15.34L108.49 15.34L108.49 15.34Q108.43 15.61 108.43 16.02L108.43 16.02L108.43 19.16L108.43 19.16Q107.31 19.67 106.17 19.93L106.17 19.93L106.17 19.93Q105.03 20.19 103.72 20.19ZM123.06 7.52L123.06 17.74L123.06 17.74Q123.06 18.15 123.14 18.39L123.14 18.39L123.14 18.39Q123.21 18.64 123.35 18.77L123.35 18.77L123.35 18.77Q123.48 18.90 123.66 18.94L123.66 18.94L123.66 18.94Q123.84 18.98 124.04 18.98L124.04 18.98L124.84 18.98L124.84 20L118.25 20L118.25 18.98L119.05 18.98L119.05 18.98Q119.26 18.98 119.44 18.94L119.44 18.94L119.44 18.94Q119.62 18.90 119.75 18.77L119.75 18.77L119.75 18.77Q119.88 18.64 119.95 18.39L119.95 18.39L119.95 18.39Q120.03 18.15 120.03 17.74L120.03 17.74L120.03 7.52L118.50 7.52L118.50 7.52Q118.07 7.52 117.78 7.61L117.78 7.61L117.78 7.61Q117.49 7.71 117.31 7.88L117.31 7.88L117.31 7.88Q117.13 8.05 117.04 8.31L117.04 8.31L117.04 8.31Q116.95 8.56 116.91 8.87L116.91 8.87L116.78 10.06L115.49 10.06L115.59 6.35L127.50 6.35L127.60 10.06L126.32 10.06L126.18 8.87L126.18 8.87Q126.14 8.56 126.05 8.31L126.05 8.31L126.05 8.31Q125.96 8.05 125.78 7.88L125.78 7.88L125.78 7.88Q125.60 7.71 125.31 7.61L125.31 7.61L125.31 7.61Q125.02 7.52 124.59 7.52L124.59 7.52L123.06 7.52ZM128.32 20L128.32 18.98L129.12 18.98L129.12 18.98Q129.31 18.98 129.49 18.95L129.49 18.95L129.49 18.95Q129.67 18.91 129.80 18.79L129.80 18.79L129.80 18.79Q129.94 18.67 130.02 18.45L130.02 18.45L130.02 18.45Q130.10 18.22 130.10 17.84L130.10 17.84L130.10 8.53L130.10 8.53Q130.10 8.15 130.02 7.92L130.02 7.92L130.02 7.92Q129.94 7.69 129.80 7.57L129.80 7.57L129.80 7.57Q129.67 7.45 129.49 7.40L129.49 7.40L129.49 7.40Q129.31 7.36 129.12 7.36L129.12 7.36L128.32 7.36L128.32 6.35L134.48 6.35L134.48 6.35Q137.18 6.35 138.45 7.26L138.45 7.26L138.45 7.26Q139.71 8.17 139.71 9.89L139.71 9.89L139.71 9.89Q139.71 10.65 139.49 11.24L139.49 11.24L139.49 11.24Q139.26 11.82 138.90 12.26L138.90 12.26L138.90 12.26Q138.53 12.70 138.06 13.00L138.06 13.00L138.06 13.00Q137.59 13.31 137.11 13.50L137.11 13.50L139.39 17.42L139.39 17.42Q139.63 17.83 139.86 18.13L139.86 18.13L139.86 18.13Q140.09 18.42 140.31 18.61L140.31 18.61L140.31 18.61Q140.54 18.81 140.79 18.89L140.79 18.89L140.79 18.89Q141.03 18.98 141.30 18.98L141.30 18.98L141.37 18.98L141.37 20L140.75 20L140.75 20Q139.89 20 139.25 19.93L139.25 19.93L139.25 19.93Q138.61 19.87 138.13 19.68L138.13 19.68L138.13 19.68Q137.65 19.49 137.30 19.15L137.30 19.15L137.30 19.15Q136.95 18.81 136.65 18.28L136.65 18.28L134.38 14.07L133.11 14.07L133.11 17.84L133.11 17.84Q133.11 18.22 133.19 18.45L133.19 18.45L133.19 18.45Q133.27 18.67 133.41 18.79L133.41 18.79L133.41 18.79Q133.54 18.91 133.72 18.95L133.72 18.95L133.72 18.95Q133.90 18.98 134.09 18.98L134.09 18.98L134.91 18.98L134.91 20L128.32 20ZM133.11 7.48L133.11 12.96L134.19 12.96L134.19 12.96Q134.85 12.96 135.29 12.79L135.29 12.79L135.29 12.79Q135.74 12.61 136.00 12.26L136.00 12.26L136.00 12.26Q136.27 11.91 136.38 11.38L136.38 11.38L136.38 11.38Q136.50 10.85 136.50 10.15L136.50 10.15L136.50 10.15Q136.50 9.43 136.37 8.92L136.37 8.92L136.37 8.92Q136.24 8.42 135.96 8.10L135.96 8.10L135.96 8.10Q135.68 7.77 135.23 7.63L135.23 7.63L135.23 7.63Q134.78 7.48 134.15 7.48L134.15 7.48L133.11 7.48ZM146.65 13.45L146.65 18.83L150.47 18.83L150.47 18.83Q150.76 18.83 150.97 18.73L150.97 18.73L150.97 18.73Q151.17 18.62 151.32 18.42L151.32 18.42L151.32 18.42Q151.47 18.23 151.56 17.96L151.56 17.96L151.56 17.96Q151.65 17.69 151.70 17.38L151.70 17.38L151.85 16.48L153.17 16.48L153.03 20L141.83 20L141.83 18.98L142.63 18.98L142.63 18.98Q142.84 18.98 143.02 18.95L143.02 18.95L143.02 18.95Q143.19 18.91 143.33 18.79L143.33 18.79L143.33 18.79Q143.46 18.67 143.54 18.45L143.54 18.45L143.54 18.45Q143.61 18.22 143.61 17.84L143.61 17.84L143.61 8.60L143.61 8.60Q143.61 8.19 143.54 7.95L143.54 7.95L143.54 7.95Q143.46 7.71 143.33 7.58L143.33 7.58L143.33 7.58Q143.20 7.45 143.03 7.40L143.03 7.40L143.03 7.40Q142.85 7.36 142.63 7.36L142.63 7.36L141.83 7.36L141.83 6.35L152.44 6.35L152.52 9.87L151.18 9.87L151.09 8.97L151.09 8.97Q151.01 8.27 150.73 7.89L150.73 7.89L150.73 7.89Q150.45 7.52 149.87 7.52L149.87 7.52L146.65 7.52L146.65 12.30L151.18 12.30L151.18 13.45L146.65 13.45ZM159.13 13.45L159.13 18.83L162.95 18.83L162.95 18.83Q163.24 18.83 163.45 18.73L163.45 18.73L163.45 18.73Q163.65 18.62 163.80 18.42L163.80 18.42L163.80 18.42Q163.95 18.23 164.04 17.96L164.04 17.96L164.04 17.96Q164.13 17.69 164.18 17.38L164.18 17.38L164.32 16.48L165.65 16.48L165.51 20L154.31 20L154.31 18.98L155.11 18.98L155.11 18.98Q155.32 18.98 155.50 18.95L155.50 18.95L155.50 18.95Q155.67 18.91 155.81 18.79L155.81 18.79L155.81 18.79Q155.94 18.67 156.02 18.45L156.02 18.45L156.02 18.45Q156.09 18.22 156.09 17.84L156.09 17.84L156.09 8.60L156.09 8.60Q156.09 8.19 156.02 7.95L156.02 7.95L156.02 7.95Q155.94 7.71 155.81 7.58L155.81 7.58L155.81 7.58Q155.68 7.45 155.50 7.40L155.50 7.40L155.50 7.40Q155.33 7.36 155.11 7.36L155.11 7.36L154.31 7.36L154.31 6.35L164.92 6.35L165.00 9.87L163.66 9.87L163.57 8.97L163.57 8.97Q163.49 8.27 163.21 7.89L163.21 7.89L163.21 7.89Q162.93 7.52 162.35 7.52L162.35 7.52L159.13 7.52L159.13 12.30L163.66 12.30L163.66 13.45L159.13 13.45Z" fill="#152c29"/><path transform="translate(6,26)rotate(0)" d="M8.12 18.67L8.12 18.67L8.12 18.67Q8.82 18.67 9.37 18.50L9.37 18.50L9.37 18.50Q9.91 18.34 10.34 18.08L10.34 18.08L10.34 18.08Q10.77 17.82 11.09 17.49L11.09 17.49L11.09 17.49Q11.41 17.16 11.66 16.85L11.66 16.85L11.66 16.85Q11.81 16.96 11.90 17.19L11.90 17.19L11.90 17.19Q11.98 17.42 11.98 17.67L11.98 17.67L11.98 17.67Q11.98 18.07 11.77 18.51L11.77 18.51L11.77 18.51Q11.55 18.95 11.05 19.33L11.05 19.33L11.05 19.33Q10.55 19.70 9.72 19.94L9.72 19.94L9.72 19.94Q8.89 20.19 7.66 20.19L7.66 20.19L7.66 20.19Q6.00 20.19 4.76 19.68L4.76 19.68L4.76 19.68Q3.52 19.18 2.70 18.25L2.70 18.25L2.70 18.25Q1.88 17.33 1.47 16.03L1.47 16.03L1.47 16.03Q1.05 14.74 1.05 13.16L1.05 13.16L1.05 13.16Q1.05 11.61 1.47 10.32L1.47 10.32L1.47 10.32Q1.89 9.03 2.72 8.11L2.72 8.11L2.72 8.11Q3.55 7.19 4.78 6.67L4.78 6.67L4.78 6.67Q6.02 6.16 7.64 6.16L7.64 6.16L7.64 6.16Q8.75 6.16 9.56 6.33L9.56 6.33L9.56 6.33Q10.38 6.50 10.92 6.80L10.92 6.80L10.92 6.80Q11.46 7.10 11.73 7.51L11.73 7.51L11.73 7.51Q12.00 7.91 12.00 8.38L12.00 8.38L12.00 8.38Q12.00 8.73 11.85 9.04L11.85 9.04L11.85 9.04Q11.69 9.34 11.39 9.57L11.39 9.57L11.39 9.57Q11.09 9.79 10.64 9.92L10.64 9.92L10.64 9.92Q10.19 10.04 9.61 10.04L9.61 10.04L9.61 10.04Q9.61 9.57 9.51 9.09L9.51 9.09L9.51 9.09Q9.41 8.62 9.16 8.24L9.16 8.24L9.16 8.24Q8.91 7.86 8.51 7.62L8.51 7.62L8.51 7.62Q8.11 7.38 7.51 7.38L7.51 7.38L7.51 7.38Q6.61 7.38 5.98 7.76L5.98 7.76L5.98 7.76Q5.36 8.15 4.98 8.88L4.98 8.88L4.98 8.88Q4.60 9.62 4.43 10.70L4.43 10.70L4.43 10.70Q4.27 11.78 4.27 13.16L4.27 13.16L4.27 13.16Q4.27 14.54 4.47 15.58L4.47 15.58L4.47 15.58Q4.68 16.61 5.13 17.30L5.13 17.30L5.13 17.30Q5.59 17.98 6.32 18.32L6.32 18.32L6.32 18.32Q7.06 18.67 8.12 18.67ZM27.89 20L21.29 20L21.29 18.98L22.11 18.98L22.11 18.98Q22.32 18.98 22.49 18.94L22.49 18.94L22.49 18.94Q22.67 18.90 22.81 18.77L22.81 18.77L22.81 18.77Q22.94 18.64 23.02 18.39L23.02 18.39L23.02 18.39Q23.09 18.15 23.09 17.74L23.09 17.74L23.09 13.47L18.10 13.47L18.10 17.74L18.10 17.74Q18.10 18.15 18.18 18.39L18.18 18.39L18.18 18.39Q18.26 18.64 18.39 18.77L18.39 18.77L18.39 18.77Q18.52 18.90 18.69 18.94L18.69 18.94L18.69 18.94Q18.87 18.98 19.08 18.98L19.08 18.98L19.90 18.98L19.90 20L13.30 20L13.30 18.98L14.10 18.98L14.10 18.98Q14.31 18.98 14.49 18.94L14.49 18.94L14.49 18.94Q14.66 18.90 14.80 18.77L14.80 18.77L14.80 18.77Q14.93 18.64 15.01 18.39L15.01 18.39L15.01 18.39Q15.08 18.15 15.08 17.74L15.08 17.74L15.08 8.54L15.08 8.54Q15.08 8.16 15.00 7.93L15.00 7.93L15.00 7.93Q14.92 7.70 14.79 7.58L14.79 7.58L14.79 7.58Q14.65 7.46 14.48 7.41L14.48 7.41L14.48 7.41Q14.30 7.37 14.10 7.37L14.10 7.37L13.30 7.37L13.30 6.35L19.90 6.35L19.90 7.37L19.08 7.37L19.08 7.37Q18.87 7.37 18.69 7.41L18.69 7.41L18.69 7.41Q18.52 7.46 18.39 7.59L18.39 7.59L18.39 7.59Q18.26 7.72 18.18 7.96L18.18 7.96L18.18 7.96Q18.10 8.20 18.10 8.61L18.10 8.61L18.10 12.30L23.09 12.30L23.09 8.61L23.09 8.61Q23.09 8.20 23.02 7.96L23.02 7.96L23.02 7.96Q22.94 7.72 22.81 7.59L22.81 7.59L22.81 7.59Q22.67 7.46 22.49 7.41L22.49 7.41L22.49 7.41Q22.32 7.37 22.11 7.37L22.11 7.37L21.29 7.37L21.29 6.35L27.89 6.35L27.89 7.37L27.09 7.37L27.09 7.37Q26.89 7.37 26.71 7.41L26.71 7.41L26.71 7.41Q26.53 7.46 26.40 7.59L26.40 7.59L26.40 7.59Q26.26 7.72 26.19 7.96L26.19 7.96L26.19 7.96Q26.11 8.20 26.11 8.61L26.11 8.61L26.11 17.84L26.11 17.84Q26.11 18.22 26.19 18.45L26.19 18.45L26.19 18.45Q26.27 18.67 26.41 18.79L26.41 18.79L26.41 18.79Q26.54 18.91 26.72 18.95L26.72 18.95L26.72 18.95Q26.89 18.98 27.09 18.98L27.09 18.98L27.89 18.98L27.89 20ZM28.95 20L28.95 18.98L29.75 18.98L29.75 18.98Q29.95 18.98 30.13 18.95L30.13 18.95L30.13 18.95Q30.31 18.91 30.44 18.79L30.44 18.79L30.44 18.79Q30.58 18.67 30.66 18.45L30.66 18.45L30.66 18.45Q30.74 18.22 30.74 17.84L30.74 17.84L30.74 8.53L30.74 8.53Q30.74 8.15 30.66 7.92L30.66 7.92L30.66 7.92Q30.58 7.69 30.44 7.57L30.44 7.57L30.44 7.57Q30.31 7.45 30.13 7.40L30.13 7.40L30.13 7.40Q29.95 7.36 29.75 7.36L29.75 7.36L28.95 7.36L28.95 6.35L35.11 6.35L35.11 6.35Q37.82 6.35 39.08 7.26L39.08 7.26L39.08 7.26Q40.35 8.17 40.35 9.89L40.35 9.89L40.35 9.89Q40.35 10.65 40.12 11.24L40.12 11.24L40.12 11.24Q39.90 11.82 39.53 12.26L39.53 12.26L39.53 12.26Q39.16 12.70 38.70 13.00L38.70 13.00L38.70 13.00Q38.23 13.31 37.74 13.50L37.74 13.50L40.02 17.42L40.02 17.42Q40.26 17.83 40.49 18.13L40.49 18.13L40.49 18.13Q40.72 18.42 40.95 18.61L40.95 18.61L40.95 18.61Q41.18 18.81 41.42 18.89L41.42 18.89L41.42 18.89Q41.66 18.98 41.94 18.98L41.94 18.98L42.01 18.98L42.01 20L41.38 20L41.38 20Q40.53 20 39.89 19.93L39.89 19.93L39.89 19.93Q39.25 19.87 38.77 19.68L38.77 19.68L38.77 19.68Q38.29 19.49 37.94 19.15L37.94 19.15L37.94 19.15Q37.59 18.81 37.29 18.28L37.29 18.28L35.02 14.07L33.75 14.07L33.75 17.84L33.75 17.84Q33.75 18.22 33.83 18.45L33.83 18.45L33.83 18.45Q33.91 18.67 34.04 18.79L34.04 18.79L34.04 18.79Q34.18 18.91 34.36 18.95L34.36 18.95L34.36 18.95Q34.53 18.98 34.73 18.98L34.73 18.98L35.55 18.98L35.55 20L28.95 20ZM33.75 7.48L33.75 12.96L34.82 12.96L34.82 12.96Q35.49 12.96 35.93 12.79L35.93 12.79L35.93 12.79Q36.37 12.61 36.64 12.26L36.64 12.26L36.64 12.26Q36.90 11.91 37.02 11.38L37.02 11.38L37.02 11.38Q37.14 10.85 37.14 10.15L37.14 10.15L37.14 10.15Q37.14 9.43 37.01 8.92L37.01 8.92L37.01 8.92Q36.88 8.42 36.60 8.10L36.60 8.10L36.60 8.10Q36.32 7.77 35.87 7.63L35.87 7.63L35.87 7.63Q35.42 7.48 34.79 7.48L34.79 7.48L33.75 7.48ZM49.07 20L42.47 20L42.47 18.98L43.27 18.98L43.27 18.98Q43.48 18.98 43.66 18.94L43.66 18.94L43.66 18.94Q43.84 18.90 43.97 18.77L43.97 18.77L43.97 18.77Q44.10 18.64 44.18 18.39L44.18 18.39L44.18 18.39Q44.25 18.15 44.25 17.74L44.25 17.74L44.25 8.61L44.25 8.61Q44.25 8.20 44.18 7.96L44.18 7.96L44.18 7.96Q44.10 7.72 43.97 7.59L43.97 7.59L43.97 7.59Q43.84 7.46 43.66 7.41L43.66 7.41L43.66 7.41Q43.48 7.37 43.27 7.37L43.27 7.37L42.47 7.37L42.47 6.35L49.07 6.35L49.07 7.37L48.26 7.37L48.26 7.37Q48.06 7.37 47.88 7.41L47.88 7.41L47.88 7.41Q47.69 7.46 47.56 7.59L47.56 7.59L47.56 7.59Q47.43 7.72 47.36 7.96L47.36 7.96L47.36 7.96Q47.28 8.20 47.28 8.61L47.28 8.61L47.28 17.74L47.28 17.74Q47.28 18.15 47.36 18.39L47.36 18.39L47.36 18.39Q47.43 18.64 47.56 18.77L47.56 18.77L47.56 18.77Q47.69 18.90 47.88 18.94L47.88 18.94L47.88 18.94Q48.06 18.98 48.26 18.98L48.26 18.98L49.07 18.98L49.07 20ZM54.65 20.19L54.65 20.19L54.65 20.19Q53.36 20.19 52.50 19.94L52.50 19.94L52.50 19.94Q51.64 19.70 51.12 19.32L51.12 19.32L51.12 19.32Q50.61 18.94 50.39 18.46L50.39 18.46L50.39 18.46Q50.17 17.98 50.17 17.52L50.17 17.52L50.17 17.52Q50.17 17.02 50.35 16.69L50.35 16.69L50.35 16.69Q50.53 16.35 50.83 16.14L50.83 16.14L50.83 16.14Q51.14 15.92 51.53 15.83L51.53 15.83L51.53 15.83Q51.91 15.73 52.33 15.73L52.33 15.73L52.33 15.73Q52.33 16.56 52.53 17.18L52.53 17.18L52.53 17.18Q52.72 17.80 53.07 18.21L53.07 18.21L53.07 18.21Q53.42 18.63 53.90 18.84L53.90 18.84L53.90 18.84Q54.38 19.05 54.95 19.05L54.95 19.05L54.95 19.05Q55.51 19.05 55.94 18.89L55.94 18.89L55.94 18.89Q56.38 18.73 56.69 18.45L56.69 18.45L56.69 18.45Q57.00 18.17 57.16 17.79L57.16 17.79L57.16 17.79Q57.32 17.41 57.32 16.98L57.32 16.98L57.32 16.98Q57.32 16.49 57.12 16.11L57.12 16.11L57.12 16.11Q56.92 15.73 56.53 15.41L56.53 15.41L56.53 15.41Q56.13 15.09 55.53 14.80L55.53 14.80L55.53 14.80Q54.93 14.50 54.12 14.17L54.12 14.17L54.12 14.17Q53.13 13.76 52.44 13.32L52.44 13.32L52.44 13.32Q51.75 12.89 51.33 12.38L51.33 12.38L51.33 12.38Q50.91 11.88 50.73 11.29L50.73 11.29L50.73 11.29Q50.55 10.70 50.55 10.00L50.55 10.00L50.55 10.00Q50.55 9.13 50.90 8.42L50.90 8.42L50.90 8.42Q51.26 7.71 51.88 7.20L51.88 7.20L51.88 7.20Q52.51 6.70 53.37 6.43L53.37 6.43L53.37 6.43Q54.23 6.16 55.24 6.16L55.24 6.16L55.24 6.16Q56.29 6.16 57.06 6.33L57.06 6.33L57.06 6.33Q57.82 6.50 58.32 6.80L58.32 6.80L58.32 6.80Q58.82 7.10 59.06 7.51L59.06 7.51L59.06 7.51Q59.30 7.91 59.30 8.38L59.30 8.38L59.30 8.38Q59.30 8.72 59.16 9.01L59.16 9.01L59.16 9.01Q59.02 9.29 58.72 9.51L58.72 9.51L58.72 9.51Q58.43 9.72 57.98 9.85L57.98 9.85L57.98 9.85Q57.54 9.97 56.95 9.97L56.95 9.97L56.95 9.97Q56.95 9.57 56.85 9.10L56.85 9.10L56.85 9.10Q56.74 8.64 56.50 8.24L56.50 8.24L56.50 8.24Q56.25 7.85 55.87 7.59L55.87 7.59L55.87 7.59Q55.48 7.33 54.93 7.33L54.93 7.33L54.93 7.33Q54.54 7.33 54.20 7.44L54.20 7.44L54.20 7.44Q53.85 7.55 53.60 7.77L53.60 7.77L53.60 7.77Q53.34 8.00 53.19 8.33L53.19 8.33L53.19 8.33Q53.04 8.66 53.04 9.09L53.04 9.09L53.04 9.09Q53.04 9.49 53.17 9.85L53.17 9.85L53.17 9.85Q53.30 10.20 53.65 10.54L53.65 10.54L53.65 10.54Q54.00 10.88 54.61 11.22L54.61 11.22L54.61 11.22Q55.23 11.56 56.20 11.95L56.20 11.95L56.20 11.95Q57.18 12.36 57.87 12.78L57.87 12.78L57.87 12.78Q58.56 13.20 59.00 13.68L59.00 13.68L59.00 13.68Q59.44 14.16 59.65 14.73L59.65 14.73L59.65 14.73Q59.85 15.31 59.85 16.01L59.85 16.01L59.85 16.01Q59.85 16.93 59.48 17.70L59.48 17.70L59.48 17.70Q59.12 18.47 58.44 19.02L58.44 19.02L58.44 19.02Q57.76 19.57 56.80 19.88L56.80 19.88L56.80 19.88Q55.84 20.19 54.65 20.19ZM68.55 7.52L68.55 17.74L68.55 17.74Q68.55 18.15 68.63 18.39L68.63 18.39L68.63 18.39Q68.70 18.64 68.84 18.77L68.84 18.77L68.84 18.77Q68.97 18.90 69.15 18.94L69.15 18.94L69.15 18.94Q69.33 18.98 69.53 18.98L69.53 18.98L70.34 18.98L70.34 20L63.74 20L63.74 18.98L64.54 18.98L64.54 18.98Q64.76 18.98 64.93 18.94L64.93 18.94L64.93 18.94Q65.11 18.90 65.24 18.77L65.24 18.77L65.24 18.77Q65.37 18.64 65.45 18.39L65.45 18.39L65.45 18.39Q65.52 18.15 65.52 17.74L65.52 17.74L65.52 7.52L63.99 7.52L63.99 7.52Q63.56 7.52 63.27 7.61L63.27 7.61L63.27 7.61Q62.98 7.71 62.80 7.88L62.80 7.88L62.80 7.88Q62.62 8.05 62.53 8.31L62.53 8.31L62.53 8.31Q62.44 8.56 62.40 8.87L62.40 8.87L62.27 10.06L60.98 10.06L61.09 6.35L73.00 6.35L73.09 10.06L71.81 10.06L71.67 8.87L71.67 8.87Q71.63 8.56 71.55 8.31L71.55 8.31L71.55 8.31Q71.46 8.05 71.27 7.88L71.27 7.88L71.27 7.88Q71.09 7.71 70.80 7.61L70.80 7.61L70.80 7.61Q70.51 7.52 70.08 7.52L70.08 7.52L68.55 7.52ZM80.41 20L73.81 20L73.81 18.98L74.61 18.98L74.61 18.98Q74.83 18.98 75.00 18.94L75.00 18.94L75.00 18.94Q75.18 18.90 75.31 18.77L75.31 18.77L75.31 18.77Q75.44 18.64 75.52 18.39L75.52 18.39L75.52 18.39Q75.59 18.15 75.59 17.74L75.59 17.74L75.59 8.61L75.59 8.61Q75.59 8.20 75.52 7.96L75.52 7.96L75.52 7.96Q75.44 7.72 75.31 7.59L75.31 7.59L75.31 7.59Q75.18 7.46 75.00 7.41L75.00 7.41L75.00 7.41Q74.83 7.37 74.61 7.37L74.61 7.37L73.81 7.37L73.81 6.35L80.41 6.35L80.41 7.37L79.60 7.37L79.60 7.37Q79.40 7.37 79.22 7.41L79.22 7.41L79.22 7.41Q79.04 7.46 78.90 7.59L78.90 7.59L78.90 7.59Q78.77 7.72 78.70 7.96L78.70 7.96L78.70 7.96Q78.62 8.20 78.62 8.61L78.62 8.61L78.62 17.74L78.62 17.74Q78.62 18.15 78.70 18.39L78.70 18.39L78.70 18.39Q78.77 18.64 78.90 18.77L78.90 18.77L78.90 18.77Q79.04 18.90 79.22 18.94L79.22 18.94L79.22 18.94Q79.40 18.98 79.60 18.98L79.60 18.98L80.41 18.98L80.41 20ZM89.75 15.51L85.10 15.51L84.55 17.15L84.55 17.15Q84.48 17.39 84.40 17.70L84.40 17.70L84.40 17.70Q84.32 18.01 84.32 18.25L84.32 18.25L84.32 18.25Q84.32 18.43 84.39 18.57L84.39 18.57L84.39 18.57Q84.47 18.71 84.59 18.80L84.59 18.80L84.59 18.80Q84.71 18.89 84.86 18.94L84.86 18.94L84.86 18.94Q85.02 18.98 85.19 18.98L85.19 18.98L85.99 18.98L85.99 20L81.01 20L81.01 18.98L81.25 18.98L81.25 18.98Q81.50 18.98 81.71 18.93L81.71 18.93L81.71 18.93Q81.92 18.87 82.10 18.72L82.10 18.72L82.10 18.72Q82.28 18.56 82.45 18.29L82.45 18.29L82.45 18.29Q82.61 18.02 82.78 17.59L82.78 17.59L86.92 6.35L89.54 6.35L93.54 17.61L93.54 17.61Q93.68 18.01 93.83 18.28L93.83 18.28L93.83 18.28Q93.99 18.54 94.17 18.70L94.17 18.70L94.17 18.70Q94.35 18.85 94.56 18.92L94.56 18.92L94.56 18.92Q94.76 18.98 94.99 18.98L94.99 18.98L95.33 18.98L95.33 20L89.02 20L89.02 18.98L89.77 18.98L89.77 18.98Q89.91 18.98 90.06 18.94L90.06 18.94L90.06 18.94Q90.21 18.90 90.32 18.81L90.32 18.81L90.32 18.81Q90.44 18.72 90.52 18.58L90.52 18.58L90.52 18.58Q90.59 18.44 90.59 18.25L90.59 18.25L90.59 18.25Q90.59 18.01 90.53 17.80L90.53 17.80L90.53 17.80Q90.48 17.58 90.42 17.42L90.42 17.42L89.75 15.51ZM89.37 14.34L88.36 11.21L88.36 11.21Q88.26 10.88 88.15 10.52L88.15 10.52L88.15 10.52Q88.04 10.16 87.93 9.79L87.93 9.79L87.93 9.79Q87.83 9.42 87.73 9.05L87.73 9.05L87.73 9.05Q87.63 8.68 87.56 8.34L87.56 8.34L87.56 8.34Q87.47 8.63 87.36 8.98L87.36 8.98L87.36 8.98Q87.25 9.32 87.12 9.69L87.12 9.69L87.12 9.69Q87.00 10.05 86.87 10.41L86.87 10.41L86.87 10.41Q86.74 10.78 86.63 11.11L86.63 11.11L85.50 14.34L89.37 14.34ZM108.30 20L106.53 20L99.07 9.47L99.07 17.74L99.07 17.74Q99.07 18.15 99.15 18.39L99.15 18.39L99.15 18.39Q99.23 18.64 99.36 18.77L99.36 18.77L99.36 18.77Q99.49 18.90 99.68 18.94L99.68 18.94L99.68 18.94Q99.86 18.98 100.05 18.98L100.05 18.98L100.86 18.98L100.86 20L95.86 20L95.86 18.98L96.67 18.98L96.67 18.98Q96.87 18.98 97.05 18.94L97.05 18.94L97.05 18.94Q97.23 18.90 97.36 18.77L97.36 18.77L97.36 18.77Q97.50 18.64 97.57 18.39L97.57 18.39L97.57 18.39Q97.65 18.15 97.65 17.74L97.65 17.74L97.65 8.53L97.65 8.53Q97.65 8.15 97.57 7.92L97.57 7.92L97.57 7.92Q97.49 7.69 97.35 7.57L97.35 7.57L97.35 7.57Q97.22 7.45 97.04 7.40L97.04 7.40L97.04 7.40Q96.86 7.36 96.67 7.36L96.67 7.36L95.86 7.36L95.86 6.35L100.11 6.35L106.86 15.89L106.86 8.53L106.86 8.53Q106.86 8.15 106.78 7.92L106.78 7.92L106.78 7.92Q106.70 7.69 106.56 7.57L106.56 7.57L106.56 7.57Q106.43 7.45 106.25 7.40L106.25 7.40L106.25 7.40Q106.07 7.36 105.88 7.36L105.88 7.36L105.08 7.36L105.08 6.35L110.07 6.35L110.07 7.36L109.27 7.36L109.27 7.36Q109.07 7.36 108.89 7.40L108.89 7.40L108.89 7.40Q108.72 7.45 108.58 7.58L108.58 7.58L108.58 7.58Q108.45 7.71 108.37 7.95L108.37 7.95L108.37 7.95Q108.30 8.19 108.30 8.60L108.30 8.60L108.30 20ZM124.17 15.51L119.52 15.51L118.97 17.15L118.97 17.15Q118.90 17.39 118.82 17.70L118.82 17.70L118.82 17.70Q118.74 18.01 118.74 18.25L118.74 18.25L118.74 18.25Q118.74 18.43 118.81 18.57L118.81 18.57L118.81 18.57Q118.89 18.71 119.01 18.80L119.01 18.80L119.01 18.80Q119.13 18.89 119.29 18.94L119.29 18.94L119.29 18.94Q119.44 18.98 119.61 18.98L119.61 18.98L120.41 18.98L120.41 20L115.44 20L115.44 18.98L115.67 18.98L115.67 18.98Q115.92 18.98 116.13 18.93L116.13 18.93L116.13 18.93Q116.34 18.87 116.52 18.72L116.52 18.72L116.52 18.72Q116.71 18.56 116.87 18.29L116.87 18.29L116.87 18.29Q117.03 18.02 117.20 17.59L117.20 17.59L121.34 6.35L123.97 6.35L127.96 17.61L127.96 17.61Q128.10 18.01 128.26 18.28L128.26 18.28L128.26 18.28Q128.41 18.54 128.59 18.70L128.59 18.70L128.59 18.70Q128.77 18.85 128.98 18.92L128.98 18.92L128.98 18.92Q129.18 18.98 129.41 18.98L129.41 18.98L129.75 18.98L129.75 20L123.44 20L123.44 18.98L124.19 18.98L124.19 18.98Q124.33 18.98 124.48 18.94L124.48 18.94L124.48 18.94Q124.63 18.90 124.75 18.81L124.75 18.81L124.75 18.81Q124.86 18.72 124.94 18.58L124.94 18.58L124.94 18.58Q125.01 18.44 125.01 18.25L125.01 18.25L125.01 18.25Q125.01 18.01 124.96 17.80L124.96 17.80L124.96 17.80Q124.90 17.58 124.84 17.42L124.84 17.42L124.17 15.51ZM123.79 14.34L122.78 11.21L122.78 11.21Q122.68 10.88 122.57 10.52L122.57 10.52L122.57 10.52Q122.46 10.16 122.36 9.79L122.36 9.79L122.36 9.79Q122.25 9.42 122.15 9.05L122.15 9.05L122.15 9.05Q122.05 8.68 121.98 8.34L121.98 8.34L121.98 8.34Q121.89 8.63 121.78 8.98L121.78 8.98L121.78 8.98Q121.67 9.32 121.54 9.69L121.54 9.69L121.54 9.69Q121.42 10.05 121.29 10.41L121.29 10.41L121.29 10.41Q121.17 10.78 121.05 11.11L121.05 11.11L119.93 14.34L123.79 14.34ZM137.87 18.67L137.87 18.67L137.87 18.67Q138.57 18.67 139.12 18.50L139.12 18.50L139.12 18.50Q139.67 18.34 140.09 18.08L140.09 18.08L140.09 18.08Q140.52 17.82 140.85 17.49L140.85 17.49L140.85 17.49Q141.17 17.16 141.41 16.85L141.41 16.85L141.41 16.85Q141.56 16.96 141.65 17.19L141.65 17.19L141.65 17.19Q141.74 17.42 141.74 17.67L141.74 17.67L141.74 17.67Q141.74 18.07 141.52 18.51L141.52 18.51L141.52 18.51Q141.31 18.95 140.80 19.33L140.80 19.33L140.80 19.33Q140.30 19.70 139.47 19.94L139.47 19.94L139.47 19.94Q138.64 20.19 137.42 20.19L137.42 20.19L137.42 20.19Q135.75 20.19 134.51 19.68L134.51 19.68L134.51 19.68Q133.27 19.18 132.45 18.25L132.45 18.25L132.45 18.25Q131.63 17.33 131.22 16.03L131.22 16.03L131.22 16.03Q130.81 14.74 130.81 13.16L130.81 13.16L130.81 13.16Q130.81 11.61 131.23 10.32L131.23 10.32L131.23 10.32Q131.65 9.03 132.47 8.11L132.47 8.11L132.47 8.11Q133.30 7.19 134.54 6.67L134.54 6.67L134.54 6.67Q135.77 6.16 137.40 6.16L137.40 6.16L137.40 6.16Q138.50 6.16 139.32 6.33L139.32 6.33L139.32 6.33Q140.13 6.50 140.67 6.80L140.67 6.80L140.67 6.80Q141.21 7.10 141.49 7.51L141.49 7.51L141.49 7.51Q141.76 7.91 141.76 8.38L141.76 8.38L141.76 8.38Q141.76 8.73 141.60 9.04L141.60 9.04L141.60 9.04Q141.45 9.34 141.14 9.57L141.14 9.57L141.14 9.57Q140.84 9.79 140.39 9.92L140.39 9.92L140.39 9.92Q139.95 10.04 139.37 10.04L139.37 10.04L139.37 10.04Q139.37 9.57 139.26 9.09L139.26 9.09L139.26 9.09Q139.16 8.62 138.91 8.24L138.91 8.24L138.91 8.24Q138.67 7.86 138.27 7.62L138.27 7.62L138.27 7.62Q137.86 7.38 137.27 7.38L137.27 7.38L137.27 7.38Q136.36 7.38 135.74 7.76L135.74 7.76L135.74 7.76Q135.11 8.15 134.73 8.88L134.73 8.88L134.73 8.88Q134.35 9.62 134.19 10.70L134.19 10.70L134.19 10.70Q134.02 11.78 134.02 13.16L134.02 13.16L134.02 13.16Q134.02 14.54 134.22 15.58L134.22 15.58L134.22 15.58Q134.43 16.61 134.89 17.30L134.89 17.30L134.89 17.30Q135.34 17.98 136.08 18.32L136.08 18.32L136.08 18.32Q136.81 18.67 137.87 18.67ZM151.33 15.51L146.68 15.51L146.13 17.15L146.13 17.15Q146.06 17.39 145.98 17.70L145.98 17.70L145.98 17.70Q145.90 18.01 145.90 18.25L145.90 18.25L145.90 18.25Q145.90 18.43 145.97 18.57L145.97 18.57L145.97 18.57Q146.05 18.71 146.17 18.80L146.17 18.80L146.17 18.80Q146.29 18.89 146.45 18.94L146.45 18.94L146.45 18.94Q146.60 18.98 146.77 18.98L146.77 18.98L147.57 18.98L147.57 20L142.60 20L142.60 18.98L142.83 18.98L142.83 18.98Q143.08 18.98 143.29 18.93L143.29 18.93L143.29 18.93Q143.50 18.87 143.68 18.72L143.68 18.72L143.68 18.72Q143.87 18.56 144.03 18.29L144.03 18.29L144.03 18.29Q144.19 18.02 144.36 17.59L144.36 17.59L148.50 6.35L151.13 6.35L155.12 17.61L155.12 17.61Q155.26 18.01 155.42 18.28L155.42 18.28L155.42 18.28Q155.57 18.54 155.75 18.70L155.75 18.70L155.75 18.70Q155.93 18.85 156.14 18.92L156.14 18.92L156.14 18.92Q156.34 18.98 156.57 18.98L156.57 18.98L156.91 18.98L156.91 20L150.60 20L150.60 18.98L151.35 18.98L151.35 18.98Q151.49 18.98 151.64 18.94L151.64 18.94L151.64 18.94Q151.79 18.90 151.91 18.81L151.91 18.81L151.91 18.81Q152.02 18.72 152.10 18.58L152.10 18.58L152.10 18.58Q152.17 18.44 152.17 18.25L152.17 18.25L152.17 18.25Q152.17 18.01 152.12 17.80L152.12 17.80L152.12 17.80Q152.06 17.58 152.00 17.42L152.00 17.42L151.33 15.51ZM150.95 14.34L149.94 11.21L149.94 11.21Q149.84 10.88 149.73 10.52L149.73 10.52L149.73 10.52Q149.62 10.16 149.52 9.79L149.52 9.79L149.52 9.79Q149.41 9.42 149.31 9.05L149.31 9.05L149.31 9.05Q149.21 8.68 149.14 8.34L149.14 8.34L149.14 8.34Q149.05 8.63 148.94 8.98L148.94 8.98L148.94 8.98Q148.83 9.32 148.70 9.69L148.70 9.69L148.70 9.69Q148.58 10.05 148.45 10.41L148.45 10.41L148.45 10.41Q148.33 10.78 148.21 11.11L148.21 11.11L147.09 14.34L150.95 14.34ZM170.52 12.93L170.52 12.93L170.52 12.93Q170.52 14.49 170.09 15.80L170.09 15.80L170.09 15.80Q169.66 17.10 168.81 18.03L168.81 18.03L168.81 18.03Q167.96 18.96 166.69 19.48L166.69 19.48L166.69 19.48Q165.43 20 163.76 20L163.76 20L157.45 20L157.45 18.98L158.25 18.98L158.25 18.98Q158.46 18.98 158.64 18.94L158.64 18.94L158.64 18.94Q158.82 18.90 158.95 18.77L158.95 18.77L158.95 18.77Q159.08 18.64 159.15 18.39L159.15 18.39L159.15 18.39Q159.23 18.15 159.23 17.74L159.23 17.74L159.23 8.53L159.23 8.53Q159.23 8.15 159.15 7.92L159.15 7.92L159.15 7.92Q159.08 7.69 158.94 7.57L158.94 7.57L158.94 7.57Q158.81 7.45 158.63 7.40L158.63 7.40L158.63 7.40Q158.45 7.36 158.25 7.36L158.25 7.36L157.45 7.36L157.45 6.35L163.76 6.35L163.76 6.35Q165.34 6.35 166.60 6.77L166.60 6.77L166.60 6.77Q167.85 7.19 168.73 8.01L168.73 8.01L168.73 8.01Q169.60 8.84 170.06 10.07L170.06 10.07L170.06 10.07Q170.52 11.30 170.52 12.93ZM167.29 12.93L167.29 12.93L167.29 12.93Q167.29 10.19 166.29 8.86L166.29 8.86L166.29 8.86Q165.29 7.52 163.34 7.52L163.34 7.52L162.24 7.52L162.24 18.81L163.32 18.81L163.32 18.81Q164.30 18.81 165.04 18.41L165.04 18.41L165.04 18.41Q165.79 18.00 166.29 17.24L166.29 17.24L166.29 17.24Q166.79 16.47 167.04 15.38L167.04 15.38L167.04 15.38Q167.29 14.30 167.29 12.93ZM176.92 13.45L176.92 18.83L180.75 18.83L180.75 18.83Q181.04 18.83 181.25 18.73L181.25 18.73L181.25 18.73Q181.45 18.62 181.60 18.42L181.60 18.42L181.60 18.42Q181.75 18.23 181.84 17.96L181.84 17.96L181.84 17.96Q181.93 17.69 181.97 17.38L181.97 17.38L182.12 16.48L183.45 16.48L183.31 20L172.11 20L172.11 18.98L172.91 18.98L172.91 18.98Q173.12 18.98 173.29 18.95L173.29 18.95L173.29 18.95Q173.47 18.91 173.61 18.79L173.61 18.79L173.61 18.79Q173.74 18.67 173.82 18.45L173.82 18.45L173.82 18.45Q173.89 18.22 173.89 17.84L173.89 17.84L173.89 8.60L173.89 8.60Q173.89 8.19 173.82 7.95L173.82 7.95L173.82 7.95Q173.74 7.71 173.61 7.58L173.61 7.58L173.61 7.58Q173.48 7.45 173.30 7.40L173.30 7.40L173.30 7.40Q173.13 7.36 172.91 7.36L172.91 7.36L172.11 7.36L172.11 6.35L182.72 6.35L182.80 9.87L181.46 9.87L181.37 8.97L181.37 8.97Q181.29 8.27 181.01 7.89L181.01 7.89L181.01 7.89Q180.73 7.52 180.14 7.52L180.14 7.52L176.92 7.52L176.92 12.30L181.46 12.30L181.46 13.45L176.92 13.45ZM201.71 20L195.60 20L195.60 18.98L195.79 18.98L195.79 18.98Q196.09 18.98 196.31 18.95L196.31 18.95L196.31 18.95Q196.54 18.91 196.69 18.80L196.69 18.80L196.69 18.80Q196.84 18.68 196.92 18.47L196.92 18.47L196.92 18.47Q196.99 18.26 196.99 17.92L196.99 17.92L196.99 8.24L193.14 20L191.84 20L187.80 8.24L187.80 17.74L187.80 17.74Q187.80 18.15 187.90 18.39L187.90 18.39L187.90 18.39Q187.99 18.64 188.18 18.77L188.18 18.77L188.18 18.77Q188.36 18.90 188.62 18.94L188.62 18.94L188.62 18.94Q188.88 18.98 189.22 18.98L189.22 18.98L189.33 18.98L189.33 20L184.59 20L184.59 18.98L185.39 18.98L185.39 18.98Q185.60 18.98 185.77 18.95L185.77 18.95L185.77 18.95Q185.95 18.91 186.09 18.79L186.09 18.79L186.09 18.79Q186.22 18.67 186.30 18.45L186.30 18.45L186.30 18.45Q186.37 18.22 186.37 17.84L186.37 17.84L186.37 8.53L186.37 8.53Q186.37 8.15 186.30 7.92L186.30 7.92L186.30 7.92Q186.22 7.69 186.09 7.57L186.09 7.57L186.09 7.57Q185.95 7.45 185.77 7.40L185.77 7.40L185.77 7.40Q185.60 7.36 185.39 7.36L185.39 7.36L184.59 7.36L184.59 6.35L190.09 6.35L193.27 15.59L196.31 6.35L201.71 6.35L201.71 7.36L200.91 7.36L200.91 7.36Q200.71 7.36 200.53 7.40L200.53 7.40L200.53 7.40Q200.35 7.45 200.22 7.58L200.22 7.58L200.22 7.58Q200.09 7.71 200.02 7.95L200.02 7.95L200.02 7.95Q199.94 8.19 199.94 8.60L199.94 8.60L199.94 17.74L199.94 17.74Q199.94 18.15 200.02 18.39L200.02 18.39L200.02 18.39Q200.09 18.64 200.22 18.77L200.22 18.77L200.22 18.77Q200.35 18.90 200.53 18.94L200.53 18.94L200.53 18.94Q200.71 18.98 200.91 18.98L200.91 18.98L201.71 18.98L201.71 20ZM212.45 20L205.39 20L205.39 18.98L206.29 18.98L206.29 18.98Q206.52 18.98 206.72 18.95L206.72 18.95L206.72 18.95Q206.92 18.93 207.07 18.81L207.07 18.81L207.07 18.81Q207.22 18.69 207.31 18.46L207.31 18.46L207.31 18.46Q207.40 18.23 207.40 17.83L207.40 17.83L207.40 15.17L203.86 8.38L203.86 8.38Q203.72 8.10 203.59 7.90L203.59 7.90L203.59 7.90Q203.47 7.71 203.32 7.59L203.32 7.59L203.32 7.59Q203.17 7.47 202.98 7.42L202.98 7.42L202.98 7.42Q202.79 7.36 202.51 7.36L202.51 7.36L202.26 7.36L202.26 6.35L208.66 6.35L208.66 7.36L208.33 7.36L208.33 7.36Q207.75 7.36 207.47 7.60L207.47 7.60L207.47 7.60Q207.18 7.83 207.18 8.22L207.18 8.22L207.18 8.22Q207.18 8.46 207.27 8.75L207.27 8.75L207.27 8.75Q207.36 9.03 207.47 9.28L207.47 9.28L208.89 12.09L208.89 12.09Q209.19 12.69 209.38 13.16L209.38 13.16L209.38 13.16Q209.57 13.63 209.73 14.07L209.73 14.07L209.73 14.07Q209.93 13.57 210.18 12.98L210.18 12.98L210.18 12.98Q210.44 12.38 210.76 11.74L210.76 11.74L211.87 9.45L211.87 9.45Q212.07 9.03 212.13 8.75L212.13 8.75L212.13 8.75Q212.20 8.46 212.20 8.31L212.20 8.31L212.20 8.31Q212.20 7.81 211.88 7.59L211.88 7.59L211.88 7.59Q211.57 7.36 210.94 7.36L210.94 7.36L210.50 7.36L210.50 6.35L215.50 6.35L215.50 7.36L215.14 7.36L215.14 7.36Q214.89 7.36 214.72 7.43L214.72 7.43L214.72 7.43Q214.55 7.49 214.39 7.66L214.39 7.66L214.39 7.66Q214.24 7.83 214.08 8.12L214.08 8.12L214.08 8.12Q213.91 8.41 213.69 8.86L213.69 8.86L210.44 15.18L210.44 17.80L210.44 17.80Q210.44 18.22 210.52 18.45L210.52 18.45L210.52 18.45Q210.61 18.68 210.75 18.81L210.75 18.81L210.75 18.81Q210.90 18.93 211.09 18.95L211.09 18.95L211.09 18.95Q211.28 18.98 211.50 18.98L211.50 18.98L212.45 18.98L212.45 20Z" fill="#152c29"/></g><g transform="translate(186,224)translate(60.5,25.5)rotate(0)translate(-60.5,-25.5) scale(1.008989176297927,1.008989176297927)" opacity="1"><defs class="defs"/><path fill="#152C29" d="M61.074,41.252v-0.16V4.314c0-1.332,5.086-7.783,22.273-1.836C94.496,6.336,98.24,5.023,98.24,5.023&#10;&#9;l13.455,37.045c0,0-6.896,4.059-23.793-2.652C70.998,32.707,61.074,39.922,61.074,41.252z" class="color c1"/><path fill="#152C29" d="M105.982,14.209h-3.096l12.389,30.861H4.646l12.389-30.861h-3.098L0,48.168c0,0,35.348,0,50.898,0&#10;&#9;c1.355,0,3.348,1.832,7.752,1.832c0.471,0,2.15,0,2.62,0c4.405,0,6.397-1.832,7.752-1.832c15.553,0,50.899,0,50.899,0&#10;&#9;L105.982,14.209z" class="color c1"/><path fill="#152C29" d="M31.584,39.416c16.902-6.709,26.393,0.506,26.393,1.836v-0.16V4.314c0-1.332-4.652-7.783-21.838-1.836&#10;&#9;c-11.15,3.857-14.676,2.545-14.676,2.545L8.229,42.068C8.229,42.068,14.686,46.127,31.584,39.416z" class="color c1"/></g><g transform="translate(188,121)translate(58.5,54)rotate(0)translate(-58.5,-54) scale(1.1295616914462252,1.1295616914462252)" opacity="1"><defs class="defs"/><path fill="#41BC3F" d="M0.393,47.857C0.158,47.978,0,48.194,0,48.458c0,0.374,0.363,0.725,0.795,0.708&#10;&#9;c0.115-0.004,0.229-0.02,0.336-0.049c0.291,0.086,0.602,0.047,0.832-0.158c0.18-0.159,0.281-0.424,0.217-0.649&#10;&#9;c0.014-0.083,0.012-0.166-0.002-0.249c0.018,0.025,0.031,0.055,0.051,0.082c0.287,0.397,0.857,0.455,1.248,0.143&#10;&#9;c-0.131,0.105,0.014-0.007,0.041-0.023c0.07-0.047,0.143-0.096,0.213-0.145c0.068-0.057,0.131,0.268,0.188,0.199&#10;&#9;c0.287-0.135,0.578-0.226,0.652-0.226h0.039c0.799,0,1.424-0.743,1.877-1.183c0.166,0.059,0.336-0.081,0.508-0.029&#10;&#9;c1.033,0.313,2.086,0.439,2.994,0.994c0.281,0.171,0.553,0.297,0.789,0.515c-0.037,0.035-0.072,0.042-0.096,0.06&#10;&#9;c-0.01,0.006-0.014-0.002-0.021,0c-0.016,0.011-0.035,0.016-0.057,0.031c-0.117,0.07-0.236,0.139-0.355,0.208&#10;&#9;c-0.25,0.144-0.504,0.282-0.756,0.425c-1.244,0.695-2.428,1.445-3.016,2.676c-0.213-0.188-0.475-0.32-0.777-0.369&#10;&#9;c-0.426-0.07-0.854,0.1-0.977,0.494c-0.049,0.16-0.023,0.34,0.057,0.498c-0.047,0.039-0.092,0.086-0.127,0.143&#10;&#9;c-0.205,0.311-0.107,0.803,0.283,0.967c0.35,0.15,0.771,0.266,1.152,0.135c0.07-0.023,0.143-0.057,0.209-0.092&#10;&#9;c0.254,1.119,1.094,2.193,1.994,2.881c0.047,0.035,0.096,0.068,0.143,0.102c-0.131,0.26-0.219,0.531-0.268,0.811&#10;&#9;c-0.104-0.029-0.213-0.047-0.324-0.041c-0.391,0.018-0.768,0.16-1.061,0.389c-0.23,0.176-0.416,0.498-0.383,0.777&#10;&#9;c0.021,0.176,0.045,0.324,0.154,0.482c0.111,0.158,0.211,0.234,0.375,0.344c0.24,0.156,0.615,0.201,0.896,0.123&#10;&#9;c0.096-0.025,0.188-0.064,0.273-0.107c0.096-0.018,0.189-0.045,0.275-0.088c0.119,0.309,0.275,0.598,0.467,0.861&#10;&#9;c0.088,0.119,0.186,0.232,0.283,0.338c-0.125,0.209-0.205,0.455-0.217,0.744c-0.008,0.217,0.01,0.424,0.041,0.625&#10;&#9;c-0.23,0.721-0.266,1.502-0.119,2.174c0.008,0.033,0.02,0.064,0.027,0.1c-0.25,0.027-0.439,0.148-0.598,0.334&#10;&#9;c-0.047,0.043-0.09,0.088-0.127,0.143c-0.205,0.314-0.104,0.801,0.285,0.971c0.07,0.029,0.141,0.055,0.211,0.072&#10;&#9;c0.139,0.096,0.313,0.154,0.49,0.154c0.25,0,0.508-0.125,0.66-0.309c1.021,0.813,2.629,1.068,3.918,0.643&#10;&#9;c0.961-0.32,1.76-0.9,2.352-1.619c-0.016,0.098-0.01,0.199,0.029,0.309c0.326,0.896,1.07,1.623,2.168,1.713&#10;&#9;c0.297,0.025,0.578-0.006,0.842-0.072c0.023,0.023,0.041,0.049,0.064,0.07c0.01,0.01,0.02,0.018,0.031,0.025&#10;&#9;c-0.301,0.113-0.537,0.391-0.516,0.689c0.025,0.377,0.27,0.699,0.645,0.879c0.492,0.236,1.055-0.014,1.172-0.467&#10;&#9;c0.012-0.059,0.031-0.113,0.055-0.168c0.004-0.008,0.008-0.016,0.012-0.023c0.115-0.209,0.139-0.438,0.031-0.648&#10;&#9;c0.717,0.385,1.48,0.695,2.299,0.846c1.867,0.348,3.973-0.367,5.609,0.604c1.494,0.887,3.518,0.77,5.242,0.98&#10;&#9;c1.988,0.244,3.973,0.432,5.982,0.443c0.051,0,0.096-0.006,0.141-0.012c0.135,0.059,0.273,0.113,0.41,0.168&#10;&#9;c2.426,0.988,4.082,1.795,6.262,3.205c0.346,0.223,1.061,0.945,1.439,1.201c0.006,0.221,0.014,0.445,0.02,0.666&#10;&#9;c-0.008,2.367,0.219,7.264,0.205,10.135c-0.008,1.389-0.084,2.732-0.232,4.08c-0.027,0.139-0.055,0.275-0.084,0.41&#10;&#9;c-0.162,0.725-0.371,1.475-0.65,2.203c-0.07-0.004-0.145,0.004-0.221,0.033c-0.035,0.012-0.07,0.02-0.105,0.031&#10;&#9;c1.797,0.836,3.141,1.902,4.006,3.02c1.176-1.479,3.182-2.879,6.043-3.75c-0.148-0.773-0.201-1.543-0.262-2.348&#10;&#9;c-0.182-2.43-0.604-4.836-0.85-7.262c-0.057-2.098-0.156-4.197-0.123-6.295c0.023-1.633,0.168-3.234,0.379-4.857&#10;&#9;c0.092-0.689,0.152-1.393,0.242-2.092c0.236-0.107,0.473-0.215,0.715-0.313c0.801-0.328,1.838-0.412,2.709-0.48&#10;&#9;c0.07-0.004,0.297-0.004,0.297-0.01c0,0,0,0,0,0.002c0,0.344-0.188,0.766,0.201,0.969c0.281,0.146,0.863,0.117,1.109-0.064&#10;&#9;c0.285-0.068,0.732-0.271,0.758-0.523c-0.023-0.016-0.229-0.029-0.221-0.041c0.008-0.018-0.105-0.033-0.096-0.049&#10;&#9;c0.012-0.025,0-0.051-0.006-0.074c0.092,0.074,0.205,0.121,0.326,0.152c0-0.004,0.004-0.006,0.004-0.01v0.01&#10;&#9;c0.09,0.021,0.184,0.041,0.279,0.039c0.025,0.029,0.041,0.061,0.072,0.088c0.029,0.141,0.039,0.283,0,0.439&#10;&#9;c-0.135,0.578,0.557,1.195,1.191,0.818c0.414-0.246,0.811-0.496,1.152-0.785c0.197-0.055,0.391-0.123,0.57-0.215&#10;&#9;c-0.014,0.043-0.02,0.092-0.02,0.143c0.002,0.234,0.064,0.451,0.256,0.623c0.188,0.166,0.434,0.219,0.691,0.221&#10;&#9;c0.432,0,0.795-0.322,0.795-0.709c0-0.227-0.127-0.428-0.318-0.557c-0.146-0.172-0.373-0.287-0.629-0.287&#10;&#9;c-0.02,0-0.037,0.008-0.057,0.01c0.133-0.152,0.277-0.34,0.41-0.541c0.223-0.025,0.445-0.053,0.668-0.078&#10;&#9;c0.037,0.096,0.076,0.189,0.137,0.279c0.428,0.668,1.324,1.203,2.199,1.217c0.52,0.008,0.982-0.188,1.279-0.57&#10;&#9;c0.006-0.008,0.006-0.018,0.012-0.021c0.775,0.082,1.588-0.055,2.324-0.393c0.512-0.234,0.951-0.584,1.285-0.994&#10;&#9;c0.135,0.023,0.27,0.047,0.406,0.064c0.441,1.529,1.973,2.807,3.682,3.049c-0.082,0.127-0.125,0.275-0.125,0.443&#10;&#9;c0,0.385,0.363,0.709,0.797,0.709c0.184,0,0.352-0.063,0.486-0.158c0.346-0.076,0.609-0.357,0.609-0.684&#10;&#9;c0-0.152-0.059-0.295-0.15-0.41c0.037-0.012,0.078-0.023,0.115-0.035c0.273,0.291,0.699,0.443,1.133,0.467&#10;&#9;c0.17,0.023,0.344,0.014,0.506-0.029c0.139-0.023,0.275-0.061,0.396-0.107c0.398-0.16,0.707-0.586,0.668-0.98&#10;&#9;c-0.047-0.465-0.311-0.838-0.654-1.172c0.15-0.365,0.242-0.756,0.297-1.145c0.049-0.031,0.094-0.061,0.143-0.092&#10;&#9;c0.438,0.381,1.209,0.57,1.799,0.354c0.541,0.012,1.098-0.088,1.512-0.355c0.621-0.404,0.959-0.885,1.016-1.578&#10;&#9;c0.031-0.389-0.148-0.932-0.398-1.246c-0.322-0.408-0.787-0.766-1.332-0.926c-0.045-0.02-0.094-0.035-0.145-0.053&#10;&#9;c-0.074-0.061-0.156-0.117-0.244-0.166c-0.016-0.242-0.063-0.477-0.119-0.705c0.063,0.018,0.121,0.021,0.186,0.043&#10;&#9;c0.443,0.139,0.871,0.291,1.328,0.416c0.793,0.211,1.742,0.301,2.6,0.16c0.93-0.146,1.84-0.551,2.32-1.066&#10;&#9;c0.307,0.221,0.768,0.209,1.051-0.043c0.025-0.023,0.047-0.049,0.066-0.074c0.191-0.133,0.318-0.34,0.318-0.561&#10;&#9;c0-0.258-0.156-0.473-0.385-0.594c0.336-0.316,0.561-0.723,0.631-1.191c0.051-0.09,0.096-0.184,0.125-0.285&#10;&#9;c0.188-0.617-0.111-1.4-0.781-1.699c-0.15-0.064-0.289-0.119-0.432-0.17c0.391-0.389,0.541-0.822,0.191-1.297&#10;&#9;c-0.293-0.395-0.814-0.682-1.441-0.893c-0.078-0.258-0.152-0.512-0.209-0.758c-0.076-0.324-0.145-0.641-0.053-0.844&#10;&#9;c0.02-0.043,0.098-0.184,0.139-0.262c0.078,0.014,0.164,0.031,0.215,0.059c0.389,0.188,0.756,0.398,1.121,0.621&#10;&#9;c0.734,0.439,1.469,0.846,2.23,1.125c-0.17,0.113-0.313,0.268-0.412,0.439c-0.201,0.342-0.102,0.766,0.285,0.969&#10;&#9;c0.361,0.188,0.887,0.088,1.088-0.254c0.004-0.008,0.012-0.016,0.016-0.023c0.234-0.123,0.396-0.342,0.396-0.604&#10;&#9;c0-0.064-0.016-0.129-0.037-0.193c0.719,0.09,1.467,0.033,2.27-0.244c1.287-0.447,2.547-1.021,3.455-1.975&#10;&#9;c0.742-0.783,1.314-2.068,0.852-3.09c-0.238-0.525-0.512-0.979-0.961-1.389c-0.088-0.08-0.252-0.225-0.391-0.349&#10;&#9;c0.014-0.104,0.021-0.211,0.031-0.317c0.006-0.004,0.012-0.008,0.02-0.012c0.197-0.132,0.41-0.254,0.59-0.404&#10;&#9;c1.969-1.632,0.27-3.867-0.109-5.834c0.283-0.535,0.246-1.188-0.314-1.637c-0.002-0.436-0.016-0.874-0.047-1.311&#10;&#9;c-0.006-0.088-0.016-0.175-0.025-0.262c0.283-0.207,0.559-0.42,0.818-0.643c0.982-0.848,1.166-2.008,0.381-3.032&#10;&#9;c-0.48-0.627-1.072-1.196-1.488-1.861c-0.115-0.151-0.201-0.315-0.26-0.492c-0.002-0.037-0.006-0.069-0.008-0.099&#10;&#9;c0.201-0.182,0.402-0.357,0.594-0.547c0.621-0.613,0.873-1.4,0.811-2.22c-0.033-0.433-0.234-0.804-0.25-1.149&#10;&#9;c0.1,0.017,0.199,0.025,0.301,0.025c0.996-0.006,1.6-0.707,1.688-1.529c0.104-0.938,0.463-1.743,0.053-2.688&#10;&#9;c-0.365-0.842-0.859-1.5-1.672-2.049c-0.137-0.094-0.279-0.177-0.424-0.255c0.129-0.091,0.225-0.219,0.277-0.356&#10;&#9;c0.156-0.142-0.043-0.387-0.119-0.584c1.061-0.053,1.047-1.406-0.057-1.406c0,0-0.436,0.342-0.443,0.686&#10;&#9;c-0.135-0.103-0.129-0.183-0.313-0.232c-0.438-0.116-0.818-0.029-1.199,0.183c-0.477,0.265-0.436,0.829-0.096,1.126&#10;&#9;c-0.977-0.107-1.971,0.042-2.893,0.428c-0.596,0.25-1.039,0.647-1.551,1.004c-0.049,0.035-0.152,0.037-0.201,0.031&#10;&#9;c-0.043-0.002-0.074-0.004-0.107-0.006c-0.572-0.975-0.238-2.04-0.645-3.049c-0.029-0.076-0.063-0.15-0.1-0.221&#10;&#9;c0.215-0.129,0.359-0.346,0.359-0.59c0-0.227-0.127-0.43-0.318-0.559c-0.146-0.172-0.371-0.285-0.629-0.285&#10;&#9;c-0.225,0-0.432,0.091-0.578,0.232c-0.701-0.4-1.568-0.545-2.42-0.297c-0.039,0.012-0.082,0.028-0.121,0.043&#10;&#9;c0.012-0.048,0.025-0.094,0.031-0.146c0.105-0.687-0.063-1.292-0.373-1.861c0.02-0.071,0.039-0.143,0.057-0.212&#10;&#9;c0.061,0.023,0.117,0.046,0.178,0.063c1.006,0.311,2.193,0.104,2.83-0.698c0.088-0.111,0.166-0.232,0.229-0.357&#10;&#9;c0.141,0.055,0.299,0.069,0.451,0.049c-0.039,0.219,0.031,0.452,0.219,0.619c0.246,0.217,0.549,0.37,0.908,0.281&#10;&#9;c0.406-0.1,0.596-0.432,0.598-0.782c0-0.388-0.361-0.708-0.795-0.708c-0.02,0-0.037,0.003-0.055,0.004&#10;&#9;c0.002-0.003,0.006-0.006,0.012-0.01c0.313-0.266,0.301-0.732,0-1c-0.311-0.279-0.811-0.268-1.123,0&#10;&#9;c-0.002,0.001-0.004,0.004-0.01,0.005c-0.008,0.007-0.018,0.013-0.027,0.019c-0.111-0.479-0.381-0.921-0.813-1.233&#10;&#9;c-0.848-0.612-2.164-0.815-3.189-0.456c-0.164,0.059-0.285,0.148-0.371,0.256c-1.219-1.154-3.176-1.754-4.908-1.822&#10;&#9;c-0.057-0.003-0.117,0-0.178-0.001c-0.475-0.628-1.135-1.223-1.85-1.697c-0.258-0.421-0.531-0.806-0.773-1.128&#10;&#9;c-0.344-0.457-0.848-0.882-1.424-1.236c0.1-0.414-0.049-0.807-0.338-1.133c-0.006-0.135-0.014-0.269-0.018-0.401&#10;&#9;c-0.061-1.804-1.504-2.724-3.012-2.772c-0.342-0.334-0.963-0.311-1.285,0.033C75.053,1.267,75,1.331,74.947,1.397&#10;&#9;c-0.973,0.356-1.764,1.123-1.941,2.297c-0.34-0.053-0.707-0.066-1.072-0.039c-0.299-0.007-0.633,0.02-1.004,0.082&#10;&#9;c-0.016,0.002-0.033,0.008-0.051,0.012c-1.123-0.313-2.375-0.279-3.656-0.275c-0.184-1.172-0.785-2.283-1.998-2.895&#10;&#9;c-2.018-1.013-4.133-0.646-5.805,0.703c-0.465,0.372-0.904,0.762-1.334,1.156c-0.693-0.66-1.594-1.137-2.66-1.147&#10;&#9;c-2.461-0.024-4.211,1.93-3.893,3.847C50.66,4.263,49.416,3.667,48.15,3.64c0.223-0.221,0.258-0.586,0.094-0.836&#10;&#9;c-0.15-0.258-0.467-0.502-0.814-0.469c-0.166,0.016-0.324,0.035-0.463,0.126c-0.006,0.003-0.014,0.007-0.018,0.009&#10;&#9;c-0.182,0.036-0.34,0.125-0.455,0.246c-0.275,0.154-0.391,0.5-0.309,0.768c0.064,0.209,0.242,0.381,0.463,0.465&#10;&#9;c-0.695,0.385-1.254,1.049-2.121,0.953c-0.168-0.02-0.334-0.047-0.5-0.08c0.055-0.094,0.088-0.199,0.088-0.311&#10;&#9;c0-0.388-0.363-0.709-0.797-0.709c-0.35,0-0.689,0.031-0.959,0.254c-0.096,0.076-0.164,0.178-0.211,0.289&#10;&#9;c-0.191-0.044-0.381-0.082-0.58-0.111c0.016-0.011,0.027-0.021,0.043-0.03c0.313-0.257,0.305-0.745,0-1.002&#10;&#9;c-0.473-0.399-1.182-0.529-1.775-0.266c-0.307,0.138-0.563,0.464-0.539,0.779c0.014,0.222,0.098,0.425,0.248,0.592&#10;&#9;c-1.744,0.349-3.354,1.391-4.133,2.822c-0.107-0.091-0.24-0.158-0.393-0.195c-0.01-0.005-0.018-0.007-0.027-0.012&#10;&#9;c-0.076-0.033-0.154-0.064-0.236-0.093c-0.229-0.131-0.49-0.192-0.771-0.091c-0.361,0.129-0.566,0.351-0.734,0.651&#10;&#9;c-0.193,0.346-0.107,0.764,0.285,0.969c0.158,0.084,0.357,0.108,0.541,0.08c0.01,0.348,0.264,0.689,0.766,0.689&#10;&#9;c0.016,0,0.027-0.002,0.039-0.002c-0.035,0.455-0.053,0.91-0.123,1.357c-0.121,0.148-0.229,0.303-0.301,0.485&#10;&#9;c-0.074,0.185-0.092,0.372-0.07,0.556c-0.047,0.019-0.533,0.236-0.752,0.299c-0.531,0.154-1.158,0.395-1.717,0.405&#10;&#9;c-0.377-0.646-0.617-1.468-0.955-2.183c-0.055-0.127-0.117-0.369-0.182-0.369h0.131c0.691,0,1.051-0.777,0.561-1.213&#10;&#9;c-0.199-0.179-0.402-0.334-0.672-0.422c-0.201-0.066-0.434-0.061-0.646-0.061c-0.148,0-0.287,0.039-0.406,0.104&#10;&#9;c-0.586-0.71-1.309-1.314-2.172-1.646c0.039-0.023,0.076-0.052,0.113-0.084c0.047-0.041,0.086-0.09,0.117-0.141&#10;&#9;c0.066-0.031,0.133-0.072,0.188-0.129c0.125-0.136,0.246-0.277,0.279-0.459c0.008-0.064,0.016-0.113,0.02-0.162&#10;&#9;c0.131-0.261,0.105-0.558-0.148-0.784c-0.24-0.213-0.67-0.286-0.965-0.11c-0.131,0.079-0.256,0.164-0.379,0.252&#10;&#9;c-0.008,0.003-0.016,0.008-0.021,0.014c-0.021,0.012-0.043,0.021-0.064,0.033c-0.037,0.012-0.078,0.026-0.102,0.033&#10;&#9;c-0.313,0.094-0.619,0.361-0.584,0.684c0.023,0.207,0.08,0.441,0.266,0.588c-0.217-0.008-0.438-0.002-0.664,0.023&#10;&#9;c-1.35,0.152-2.711,0.748-3.318,1.885c-0.486,0.914-0.412,1.877-0.307,2.854c0.057,0.531,0.344,1.484-0.545,1.4&#10;&#9;c-0.891-0.083-1.621-1.144-2.342-1.554c-4.506-2.565-9.387,3.866-6.322,7.097c-0.088,0.161-0.176,0.323-0.264,0.486&#10;&#9;c-0.029-0.001-0.443-0.006-0.473-0.006c-0.143,0.006-0.803,0.026-0.803,0.049v-0.016c0-0.135,0.357-0.264,0.314-0.381&#10;&#9;c0.129-0.262,0.27-0.584,0.033-0.793c-0.281-0.251-0.629-0.266-0.938-0.064c-0.266,0.004-0.471,0.115-0.619,0.342&#10;&#9;c-0.178,0.271-0.098,0.653,0.158,0.869c0.021,0.05,0.061,0.098,0.1,0.146c0.104,0.133,0.223,0.254,0.352,0.369&#10;&#9;c-0.004,0.004,0.002,0.006-0.002,0.008c-0.014,0.021-0.02,0.043-0.031,0.063c-0.092-0.033-0.189-0.054-0.295-0.054&#10;&#9;c-0.066,0-0.131,0.005-0.193,0.011c-0.035-0.006-0.072-0.011-0.107-0.011c-0.176,0-0.338,0.054-0.471,0.143&#10;&#9;c0.059-0.143,0.063-0.3,0.016-0.444c0.021-0.064,0.037,0.015,0.037-0.057c0-0.384-0.363-0.557-0.797-0.557H8.512&#10;&#9;c-0.432,0-0.369,0.024-0.369,0.41V18.5c0,0.217-0.123,0.399,0.049,0.556c0.092,0.08,0.078,0.162,0.17,0.244&#10;&#9;c0.275,0.246,0.666,0.268,0.973,0.066c-0.029,0.076-0.076,0.156-0.076,0.24c0,0.055-0.008,0.107,0,0.157&#10;&#9;c0.002,0.011-0.057,0.022-0.057,0.033c0.008,0.049-0.02,0.097-0.02,0.142v0.004c0,0.051,0.094,0.101,0.121,0.15&#10;&#9;c0.059,0.109,0.191,0.199,0.287,0.285c0.305,0.271,0.832,0.271,1.137,0c0.105-0.094,0.178-0.211,0.211-0.331&#10;&#9;c0.021-0.026,0.047-0.054,0.068-0.084c0.115,0.048,0.244,0.077,0.377,0.084c0.047,0.001,0.088-0.002,0.131-0.009&#10;&#9;c-0.428,0.592-0.926,1.129-1.564,1.56c-0.643,0.435-1.305,0.907-1.857,1.452c-0.012-0.02-0.018-0.04-0.031-0.058&#10;&#9;c-0.164-0.227-0.438-0.382-0.75-0.37c-0.174,0.006-0.352,0.041-0.521,0.077c-0.412,0.091-0.656,0.492-0.561,0.851&#10;&#9;c-0.041,0.207-0.021,0.42,0.084,0.608c-0.023,0-0.045-0.005-0.068,0c-0.186,0.021-0.369,0.036-0.523,0.14&#10;&#9;c-0.018,0.008-0.029,0.02-0.047,0.031c-0.32,0.091-0.559,0.357-0.559,0.672c0,0.299,0.219,0.558,0.518,0.66&#10;&#9;c0.051,0.111,0.104,0.222,0.146,0.337c0.037,0.092,0.088,0.176,0.154,0.248c-0.053,0.151-0.031,0.314,0.037,0.462&#10;&#9;c-0.117,0.056-0.523,0.118-0.613,0.192c-0.24,0.195-0.498,0.446-0.586,0.714c-0.057-0.159-0.145-0.288-0.344-0.288H4.275&#10;&#9;c-0.432,0-0.795,0.135-0.795,0.521c0.002,0.386,0.363,0.519,0.795,0.519h0.15c0.314,0,0.582,0.187,0.711-0.051&#10;&#9;c0.002,0.053,0,0.281,0.006,0.334c0.029,0.277,0.215,0.644,0.5,0.755c0.021,0.224,0.09,0.485,0.217,0.692&#10;&#9;c0.053,0.195,0.139,0.399,0.258,0.566c-0.383,0.11-0.885,0.248-1.264,0.33c-1.805,0.401-4.053,0.951-4.662,2.75&#10;&#9;c-0.543,1.604,0.254,3.034,1.203,4.314c0.588,0.797,0.52,1.469,0.52,2.416v0.002c0,0.129-0.391,0.293-0.688,0.509&#10;&#9;c-1.385,1.015-1.469,3.106-0.504,4.419c0.297,0.405,0.74,0.785,1.176,1.099c-0.105,0.022-0.184,0.04-0.287,0.063&#10;&#9;c-0.418,0.091-0.646,0.505-0.537,0.868c-0.049,0.002-0.088,0.007-0.137,0.016C0.682,47.494,0.506,47.66,0.393,47.857z M47.9,70.203&#10;&#9;c0.002,0.227,0.004,0.453,0.006,0.678c-0.023-0.014-0.045-0.027-0.068-0.041c-1.928-1.098-4.182-1.605-6.277-2.396&#10;&#9;c-0.367-0.188-0.699-0.4-0.926-0.652c-0.586-0.658-0.973-1.43-1.496-2.127c-0.219-0.289-0.471-0.564-0.734-0.832&#10;&#9;c0.109-0.127,0.225-0.262,0.338-0.412c0.279,0.16,0.588,0.281,0.926,0.35c0.477,0.094,1.002,0.039,1.482-0.123&#10;&#9;c-0.008,0.047-0.014,0.092-0.014,0.137c0,0.105,0.023,1.084,0.063,1.176c-0.104-0.037-0.217,0.818-0.348,0.818h0.514&#10;&#9;c-0.943,0-1.02,0.588-0.252,0.746c0.525-0.135,0.707-0.545,0.541-0.959c0.117,0.049,0.242,0.213,0.373,0.213h0.256&#10;&#9;c0.486,0,0.893-0.959,0.893-1.404c0-0.439-0.402-1.102-0.883-1.107c0.512-0.504,0.734-1.33,0.336-2.057&#10;&#9;c-0.049-0.084-0.199-0.346-0.371-0.563c0.014-0.129,0.041-0.285,0.102-0.375c0.178,0.186,0.377,0.328,0.59,0.457&#10;&#9;c0.691,0.412,1.338,0.428,1.883,0.209c1.201,0.627,2.357,1.311,3.088,1.859c0.006,0.008,0.012,0.014,0.02,0.023&#10;&#9;C47.588,65.945,47.6,68.074,47.9,70.203z M61.373,64.943c-0.283,0.254-0.291,0.658-0.053,0.932&#10;&#9;c-1.023,0.023-2.043,0.076-3.063,0.227c-0.596,0.088-1.119,0.248-1.623,0.439c0.025-0.113,0.055-0.227,0.086-0.338&#10;&#9;c0.373-1.281,0.998-2.219,2.084-3.107c0.574-0.471,1.234-0.76,1.66-1.359c0.342-0.119,0.691-0.15,1.043-0.15h0.014&#10;&#9;c0.02,0,0.182-0.168,0.324-0.063c-0.027,0.285-0.043,0.445-0.084,0.729c-0.012,0.088-0.041,0.09-0.084,0.145&#10;&#9;c-0.006,0.006-0.012,0.105-0.02,0.111c-0.008,0.01-0.02,0.117-0.027,0.117c-0.014,0-0.01,0-0.025,0&#10;&#9;c-0.088,0-0.176-0.123-0.262-0.105c-0.211,0.035-0.381,0.072-0.545,0.199c-0.42,0.324-0.219,1.078,0.373,0.99&#10;&#9;c0.197-0.029,0.385-0.09,0.564-0.146c-0.031,0.346-0.018,0.684,0.086,1c0.021,0.07,0.025,0.125,0.053,0.189&#10;&#9;C61.699,64.768,61.506,64.828,61.373,64.943z M62.756,51.09c0.146,0.035,0.289,0.053,0.432,0.055&#10;&#9;c-0.09,0.445-0.031,0.883,0.191,1.322c-0.18,0.176-0.406,0.344-0.723,0.498c-0.756,0.373-1.551,0.715-2.008,1.238&#10;&#9;c-0.939,1.078,0.916,1.896,2.266,2.428c0.713,0.281,1.742,0.574,1.74,1.146c0,0.416-0.098,0.816-0.08,1.225&#10;&#9;c-0.992-0.059-1.984-0.053-2.967,0.053c-1.473,0.16-2.664-0.127-4.029,0.387c0.34-0.881,0.717-1.75,1.176-2.6&#10;&#9;c0.676-1.258,1.283-2.551,1.979-3.799c0.418-0.754,0.863-1.51,1.482-2.141C62.379,50.975,62.557,51.039,62.756,51.09z M54.76,48.447&#10;&#9;c0.008,0.011,0.014,0.022,0.02,0.033c0.951,1.299,2.74,1.385,4.09,0.479c0.717-0.48,1.326-1.472,2.088-1.959&#10;&#9;c0.094,0.117,0.178,0.244,0.254,0.373c-0.227,0.469-0.355,0.954-0.365,1.417c-0.273,0.227,0.209,0.046-0.281,0.962&#10;&#9;c-0.229,0.428-1.637,2.465-1.859,2.895c-0.174,0.109-1.605,2.01-1.738,2.17c-1.367,1.65-1.822,2.547-2.898,4.342&#10;&#9;c-0.211-0.34-0.977-1.178-1.199-1.502c-0.545-0.789-1.037-1.598-1.572-2.391c0.131-0.152,0.197-0.354,0.141-0.59&#10;&#9;c-0.141-0.598,0.631-1.545,0.932-2.043c0.377-0.637,0.684-1.297,1.045-1.941C53.84,49.932,54.305,49.192,54.76,48.447z&#10;&#9; M48.57,46.846c0.092-0.176,0.197-0.334,0.32-0.479c0.125,0.159,0.268,0.308,0.416,0.427c0.354,0.289,0.787,0.492,1.238,0.582&#10;&#9;c0.021,0.076,0.053,0.152,0.109,0.228c0.584,0.785,1.533,1.133,2.447,0.524c0.094-0.062,0.156-0.133,0.207-0.209&#10;&#9;c-0.627,1.072-1.281,2.131-1.877,3.184c-0.402,0.713-1.025,1.535-1.369,2.379c-0.574-0.971-0.955-2.02-1.518-3.004&#10;&#9;c-0.281-0.492-0.564-0.979-0.834-1.473C48.018,48.365,48.225,47.499,48.57,46.846z M38.117,48.657&#10;&#9;c-0.107-0.25-0.26-0.481-0.443-0.69c0.271,0.201,0.553,0.439,0.742,0.5c1.332,0.419,2.873,0.145,3.801-0.857&#10;&#9;c0.424-0.459,0.559-1.068,0.734-1.643c0.01,0.008,0.02,0.014,0.027,0.021c0.117,0.091,0.229,0.19,0.338,0.294&#10;&#9;c-0.1,0.465-0.213,0.939-0.197,1.396c0.033,0.96,1.049,1.807,2.041,2.02c0.268,0.057,0.533,0.053,0.789,0.009&#10;&#9;c0.717,1.585,1.672,3.956,2.199,4.802c0.795,1.27,1.666,2.541,2.436,3.824c0.414,0.686,0.676,1.646,0.637,2.457&#10;&#9;c-0.004,0.084,0,0.164,0.01,0.238c-0.348,0.309-0.65,0.65-0.916,1.016c-1.021-0.109-2.082-0.633-3.23-1.225&#10;&#9;c0.297-0.139,0.533-0.375,0.6-0.711c0.004-0.023,0.004-0.045,0.008-0.07c0.037-0.119,0.066-0.24,0.074-0.377&#10;&#9;c0.012-0.213-0.094-0.414-0.256-0.563c0-0.002-0.002-0.004-0.004-0.006c0.061-0.004,0.117-0.016,0.17-0.031&#10;&#9;c0.344-0.117,0.566-0.322,0.732-0.619c0.223-0.395,0.115-0.881-0.32-1.115c-0.305-0.162-0.721-0.137-1.002,0.057&#10;&#9;c-0.344,0.115-0.609,0.416-0.598,0.766c0.004,0.094,0.02,0.178,0.041,0.258c-0.213-0.029-0.436,0-0.645,0.066&#10;&#9;c-0.182-0.281-0.41-0.541-0.66-0.754c0.523-0.301,0.908-0.76,1.094-1.256c0.314,0.102,0.682,0.043,0.93-0.184&#10;&#9;c0.344-0.314,0.344-0.84,0-1.152c-0.02-0.018-0.037-0.039-0.055-0.059c-0.041-0.105-0.104-0.203-0.201-0.291&#10;&#9;c-0.164-0.152-0.395-0.238-0.629-0.238c-0.17,0-0.346,0.053-0.496,0.143c-0.211-0.174-0.482-0.318-0.828-0.422&#10;&#9;c-0.127-0.037-0.254-0.064-0.375-0.09c-0.293-0.359-0.76-0.592-1.283-0.625c-0.67-0.039-1.355,0.121-1.947,0.422&#10;&#9;c0.082-0.93-0.479-1.926-1.32-2.475c-0.756-0.496-1.732-0.699-2.656-0.527c-0.078,0.014-0.174,0.035-0.271,0.061&#10;&#9;C38.023,50.496,38.525,49.6,38.117,48.657z M36.023,66.434c0.031-0.217,0.051-0.436,0.066-0.654&#10;&#9;c0.139,0.008,0.281,0.006,0.432-0.008c0.174-0.018,0.35-0.049,0.521-0.098c0.477,0.486,0.916,0.992,1.277,1.566&#10;&#9;c0.203,0.322,0.406,0.645,0.635,0.947c-1.32-0.039-2.629-0.143-3.939-0.283C35.623,67.602,35.932,67.059,36.023,66.434z&#10;&#9; M22.314,65.867c0.025-0.018,0.055-0.035,0.076-0.057c0.145-0.129,0.223-0.305,0.229-0.482c0.064-0.152,0.104-0.314,0.133-0.477&#10;&#9;c0.053-0.02,0.107-0.039,0.16-0.063c0.539-0.219,1.146-0.568,1.764-0.822c-0.111-0.123-0.219-0.248-0.318-0.379&#10;&#9;c-0.389-0.512-0.338-1.24,0.164-1.686c0.105,0.057,0.205,0.119,0.313,0.172c0.813,0.408,1.656,0.652,2.514,0.813&#10;&#9;c0.258,0.277,0.602,0.496,0.99,0.633c0.092,0.064,0.191,0.121,0.291,0.178c0.381,0.01,0.758,0.051,1.127,0.125&#10;&#9;c0.91,0.178,1.668,0.719,2.432,1.229c-0.371,0.357-0.596,0.857-0.543,1.406c0.047,0.48,0.254,0.863,0.557,1.148&#10;&#9;c-1.113-0.102-2.209-0.248-3.164-0.799c-1.563-0.895-3.164-0.332-4.869-0.469c-0.666-0.053-1.287-0.205-1.875-0.43&#10;&#9;C22.301,65.893,22.311,65.881,22.314,65.867z" class="color c1"/></g><g transform="translate(136,284)translate(110.5,26.5)rotate(0)translate(-110.5,-26.5) scale(1.0045454545454546,1.0045454545454546)" opacity="1"><defs class="defs"/><rect fill="#152C29" width="220" height="2" class="color c1"/><rect x="35" y="50" fill="#152C29" width="150" height="2" class="color c1"/></g><g transform="translate(200,336)translate(46.5,13.5)rotate(0)translate(-46.5,-13.5)" opacity="1"><path transform="translate(6,0)rotate(0)" d="M4.50 14.28L4.50 20.04L8.21 20.04L8.21 20.04Q8.67 20.04 9.00 19.91L9.00 19.91L9.00 19.91Q9.32 19.79 9.54 19.57L9.54 19.57L9.54 19.57Q9.75 19.36 9.87 19.07L9.87 19.07L9.87 19.07Q10.00 18.78 10.04 18.46L10.04 18.46L10.18 17.64L11.18 17.64L11.05 21L0.73 21L0.73 20.19L0.98 20.19L0.98 20.19Q1.30 20.19 1.58 20.15L1.58 20.15L1.58 20.15Q1.87 20.11 2.09 19.98L2.09 19.98L2.09 19.98Q2.30 19.84 2.43 19.59L2.43 19.59L2.43 19.59Q2.56 19.33 2.56 18.90L2.56 18.90L2.56 9.45L2.56 9.45Q2.56 9.00 2.43 8.73L2.43 8.73L2.43 8.73Q2.31 8.46 2.10 8.31L2.10 8.31L2.10 8.31Q1.88 8.17 1.59 8.12L1.59 8.12L1.59 8.12Q1.31 8.07 0.98 8.07L0.98 8.07L0.73 8.07L0.73 7.26L10.43 7.26L10.52 10.63L9.53 10.63L9.43 9.80L9.43 9.80Q9.40 9.48 9.29 9.19L9.29 9.19L9.29 9.19Q9.18 8.91 8.98 8.69L8.98 8.69L8.98 8.69Q8.78 8.48 8.47 8.35L8.47 8.35L8.47 8.35Q8.16 8.22 7.73 8.22L7.73 8.22L4.50 8.22L4.50 13.34L9.14 13.34L9.14 14.28L4.50 14.28ZM16.03 21.19L16.03 21.19L16.03 21.19Q15.31 21.19 14.72 21.06L14.72 21.06L14.72 21.06Q14.13 20.93 13.72 20.68L13.72 20.68L13.72 20.68Q13.30 20.42 13.08 20.04L13.08 20.04L13.08 20.04Q12.85 19.66 12.85 19.15L12.85 19.15L12.85 19.15Q12.85 18.76 12.98 18.51L12.98 18.51L12.98 18.51Q13.11 18.25 13.29 18.10L13.29 18.10L13.29 18.10Q13.47 17.95 13.68 17.89L13.68 17.89L13.68 17.89Q13.90 17.82 14.07 17.82L14.07 17.82L14.07 17.82Q14.07 18.33 14.17 18.77L14.17 18.77L14.17 18.77Q14.27 19.21 14.52 19.55L14.52 19.55L14.52 19.55Q14.76 19.88 15.16 20.07L15.16 20.07L15.16 20.07Q15.56 20.27 16.14 20.27L16.14 20.27L16.14 20.27Q16.66 20.27 17.05 20.14L17.05 20.14L17.05 20.14Q17.45 20.01 17.72 19.78L17.72 19.78L17.72 19.78Q17.98 19.55 18.12 19.23L18.12 19.23L18.12 19.23Q18.27 18.90 18.27 18.52L18.27 18.52L18.27 18.52Q18.27 18.16 18.16 17.90L18.16 17.90L18.16 17.90Q18.05 17.65 17.78 17.42L17.78 17.42L17.78 17.42Q17.51 17.19 17.05 16.96L17.05 16.96L17.05 16.96Q16.59 16.72 15.90 16.42L15.90 16.42L15.90 16.42Q15.16 16.10 14.61 15.79L14.61 15.79L14.61 15.79Q14.06 15.48 13.70 15.13L13.70 15.13L13.70 15.13Q13.34 14.77 13.16 14.31L13.16 14.31L13.16 14.31Q12.98 13.86 12.98 13.23L12.98 13.23L12.98 13.23Q12.98 12.57 13.24 12.06L13.24 12.06L13.24 12.06Q13.50 11.56 13.98 11.21L13.98 11.21L13.98 11.21Q14.46 10.87 15.13 10.69L15.13 10.69L15.13 10.69Q15.79 10.51 16.61 10.51L16.61 10.51L16.61 10.51Q17.30 10.51 17.82 10.66L17.82 10.66L17.82 10.66Q18.35 10.80 18.71 11.04L18.71 11.04L18.71 11.04Q19.06 11.28 19.24 11.60L19.24 11.60L19.24 11.60Q19.42 11.92 19.42 12.28L19.42 12.28L19.42 12.28Q19.42 12.81 19.06 13.12L19.06 13.12L19.06 13.12Q18.70 13.44 18.03 13.44L18.03 13.44L18.03 13.44Q18.03 12.47 17.63 11.93L17.63 11.93L17.63 11.93Q17.23 11.40 16.38 11.40L16.38 11.40L16.38 11.40Q15.89 11.40 15.54 11.51L15.54 11.51L15.54 11.51Q15.19 11.62 14.97 11.83L14.97 11.83L14.97 11.83Q14.75 12.04 14.65 12.32L14.65 12.32L14.65 12.32Q14.54 12.60 14.54 12.94L14.54 12.94L14.54 12.94Q14.54 13.30 14.68 13.57L14.68 13.57L14.68 13.57Q14.81 13.84 15.09 14.07L15.09 14.07L15.09 14.07Q15.38 14.29 15.84 14.50L15.84 14.50L15.84 14.50Q16.29 14.71 16.93 14.98L16.93 14.98L16.93 14.98Q17.69 15.30 18.24 15.61L18.24 15.61L18.24 15.61Q18.78 15.92 19.13 16.28L19.13 16.28L19.13 16.28Q19.49 16.65 19.66 17.11L19.66 17.11L19.66 17.11Q19.82 17.57 19.82 18.17L19.82 18.17L19.82 18.17Q19.82 18.92 19.55 19.49L19.55 19.49L19.55 19.49Q19.28 20.05 18.78 20.43L18.78 20.43L18.78 20.43Q18.28 20.81 17.58 21L17.58 21L17.58 21Q16.88 21.19 16.03 21.19ZM25.77 20.17L25.77 20.17L25.77 20.17Q26.12 20.17 26.41 20.14L26.41 20.14L26.41 20.14Q26.70 20.10 27.00 20.04L27.00 20.04L27.00 20.89L27.00 20.89Q26.88 20.94 26.68 21L26.68 21L26.68 21Q26.49 21.06 26.26 21.10L26.26 21.10L26.26 21.10Q26.03 21.14 25.77 21.16L25.77 21.16L25.77 21.16Q25.52 21.19 25.29 21.19L25.29 21.19L25.29 21.19Q24.56 21.19 24.03 21.03L24.03 21.03L24.03 21.03Q23.51 20.88 23.17 20.53L23.17 20.53L23.17 20.53Q22.83 20.18 22.67 19.61L22.67 19.61L22.67 19.61Q22.50 19.04 22.50 18.21L22.50 18.21L22.50 11.78L21.04 11.78L21.04 11.01L21.04 11.01Q21.38 11.01 21.80 10.87L21.80 10.87L21.80 10.87Q22.22 10.73 22.54 10.40L22.54 10.40L22.54 10.40Q22.87 10.04 23.07 9.55L23.07 9.55L23.07 9.55Q23.27 9.06 23.42 8.32L23.42 8.32L24.31 8.32L24.31 10.68L26.82 10.68L26.82 11.78L24.31 11.78L24.31 18.27L24.31 18.27Q24.31 19.25 24.71 19.71L24.71 19.71L24.71 19.71Q25.11 20.17 25.77 20.17ZM28.64 19.83L28.64 19.83L28.64 19.83Q28.64 19.45 28.73 19.20L28.73 19.20L28.73 19.20Q28.83 18.95 28.99 18.80L28.99 18.80L28.99 18.80Q29.15 18.65 29.38 18.59L29.38 18.59L29.38 18.59Q29.60 18.52 29.85 18.52L29.85 18.52L29.85 18.52Q30.09 18.52 30.32 18.59L30.32 18.59L30.32 18.59Q30.54 18.65 30.70 18.80L30.70 18.80L30.70 18.80Q30.86 18.95 30.96 19.20L30.96 19.20L30.96 19.20Q31.06 19.45 31.06 19.83L31.06 19.83L31.06 19.83Q31.06 20.19 30.96 20.45L30.96 20.45L30.96 20.45Q30.86 20.70 30.70 20.85L30.70 20.85L30.70 20.85Q30.54 21 30.32 21.07L30.32 21.07L30.32 21.07Q30.09 21.13 29.85 21.13L29.85 21.13L29.85 21.13Q29.60 21.13 29.38 21.07L29.38 21.07L29.38 21.07Q29.15 21 28.99 20.85L28.99 20.85L28.99 20.85Q28.83 20.70 28.73 20.45L28.73 20.45L28.73 20.45Q28.64 20.19 28.64 19.83ZM46.12 10.28L46.12 10.28L46.12 10.28Q46.12 10.96 45.91 11.59L45.91 11.59L45.91 11.59Q45.69 12.23 45.28 12.91L45.28 12.91L45.28 12.91Q44.86 13.58 44.27 14.30L44.27 14.30L44.27 14.30Q43.67 15.02 42.91 15.86L42.91 15.86L39.66 19.46L44.10 19.46L44.10 19.46Q44.54 19.46 44.82 19.34L44.82 19.34L44.82 19.34Q45.10 19.21 45.28 19.02L45.28 19.02L45.28 19.02Q45.46 18.82 45.56 18.56L45.56 18.56L45.56 18.56Q45.65 18.30 45.72 18.02L45.72 18.02L45.79 17.67L46.60 17.67L46.51 21L38.23 21L38.23 19.59L41.44 15.88L41.44 15.88Q42.21 14.99 42.74 14.28L42.74 14.28L42.74 14.28Q43.26 13.58 43.58 12.95L43.58 12.95L43.58 12.95Q43.90 12.33 44.04 11.73L44.04 11.73L44.04 11.73Q44.18 11.13 44.18 10.48L44.18 10.48L44.18 10.48Q44.18 9.92 44.06 9.48L44.06 9.48L44.06 9.48Q43.94 9.03 43.70 8.71L43.70 8.71L43.70 8.71Q43.46 8.38 43.09 8.21L43.09 8.21L43.09 8.21Q42.72 8.03 42.21 8.03L42.21 8.03L42.21 8.03Q41.56 8.03 41.15 8.27L41.15 8.27L41.15 8.27Q40.74 8.50 40.50 8.90L40.50 8.90L40.50 8.90Q40.27 9.29 40.19 9.81L40.19 9.81L40.19 9.81Q40.10 10.33 40.10 10.90L40.10 10.90L40.10 10.90Q39.75 10.90 39.45 10.84L39.45 10.84L39.45 10.84Q39.15 10.79 38.93 10.64L38.93 10.64L38.93 10.64Q38.70 10.50 38.57 10.26L38.57 10.26L38.57 10.26Q38.45 10.02 38.45 9.65L38.45 9.65L38.45 9.65Q38.45 9.10 38.69 8.62L38.69 8.62L38.69 8.62Q38.93 8.15 39.40 7.80L39.40 7.80L39.40 7.80Q39.88 7.45 40.58 7.26L40.58 7.26L40.58 7.26Q41.28 7.07 42.21 7.07L42.21 7.07L42.21 7.07Q43.13 7.07 43.85 7.30L43.85 7.30L43.85 7.30Q44.57 7.53 45.08 7.94L45.08 7.94L45.08 7.94Q45.59 8.36 45.86 8.95L45.86 8.95L45.86 8.95Q46.12 9.55 46.12 10.28ZM57.91 14.11L57.91 14.11L57.91 14.11Q57.91 15.70 57.63 17.01L57.63 17.01L57.63 17.01Q57.35 18.31 56.79 19.24L56.79 19.24L56.79 19.24Q56.22 20.17 55.38 20.68L55.38 20.68L55.38 20.68Q54.53 21.19 53.40 21.19L53.40 21.19L53.40 21.19Q52.21 21.19 51.36 20.68L51.36 20.68L51.36 20.68Q50.50 20.17 49.95 19.24L49.95 19.24L49.95 19.24Q49.40 18.31 49.14 17.00L49.14 17.00L49.14 17.00Q48.88 15.69 48.88 14.09L48.88 14.09L48.88 14.09Q48.88 12.50 49.14 11.20L49.14 11.20L49.14 11.20Q49.40 9.90 49.95 8.98L49.95 8.98L49.95 8.98Q50.50 8.06 51.36 7.56L51.36 7.56L51.36 7.56Q52.22 7.07 53.41 7.07L53.41 7.07L53.41 7.07Q54.54 7.07 55.38 7.56L55.38 7.56L55.38 7.56Q56.22 8.06 56.79 8.98L56.79 8.98L56.79 8.98Q57.35 9.90 57.63 11.20L57.63 11.20L57.63 11.20Q57.91 12.51 57.91 14.11ZM50.88 14.11L50.88 14.11L50.88 14.11Q50.88 15.54 51.01 16.66L51.01 16.66L51.01 16.66Q51.14 17.79 51.44 18.56L51.44 18.56L51.44 18.56Q51.73 19.34 52.22 19.75L52.22 19.75L52.22 19.75Q52.70 20.15 53.40 20.15L53.40 20.15L53.40 20.15Q54.10 20.15 54.58 19.75L54.58 19.75L54.58 19.75Q55.06 19.34 55.35 18.56L55.35 18.56L55.35 18.56Q55.65 17.79 55.78 16.66L55.78 16.66L55.78 16.66Q55.90 15.54 55.90 14.11L55.90 14.11L55.90 14.11Q55.90 12.68 55.78 11.57L55.78 11.57L55.78 11.57Q55.65 10.45 55.35 9.68L55.35 9.68L55.35 9.68Q55.06 8.91 54.58 8.51L54.58 8.51L54.58 8.51Q54.11 8.11 53.41 8.11L53.41 8.11L53.41 8.11Q52.71 8.11 52.23 8.51L52.23 8.51L52.23 8.51Q51.74 8.91 51.44 9.68L51.44 9.68L51.44 9.68Q51.14 10.45 51.01 11.57L51.01 11.57L51.01 11.57Q50.88 12.68 50.88 14.11ZM67.95 21L60.62 21L60.62 20.19L61.91 20.19L61.91 20.19Q62.24 20.19 62.52 20.14L62.52 20.14L62.52 20.14Q62.81 20.10 63.02 19.95L63.02 19.95L63.02 19.95Q63.23 19.81 63.36 19.53L63.36 19.53L63.36 19.53Q63.49 19.26 63.49 18.81L63.49 18.81L63.49 8.70L63.49 8.70Q63.12 9.15 62.79 9.52L62.79 9.52L62.79 9.52Q62.46 9.88 62.16 10.15L62.16 10.15L62.16 10.15Q61.86 10.41 61.57 10.56L61.57 10.56L61.57 10.56Q61.29 10.70 61.01 10.70L61.01 10.70L61.01 10.70Q60.58 10.70 60.31 10.42L60.31 10.42L60.31 10.42Q60.04 10.13 60.04 9.67L60.04 9.67L60.04 9.67Q60.33 9.59 60.63 9.49L60.63 9.49L60.63 9.49Q60.92 9.38 61.26 9.20L61.26 9.20L61.26 9.20Q61.59 9.03 61.98 8.78L61.98 8.78L61.98 8.78Q62.37 8.53 62.85 8.18L62.85 8.18L64.20 7.19L65.43 7.19L65.43 18.81L65.43 18.81Q65.43 19.26 65.55 19.53L65.55 19.53L65.55 19.53Q65.68 19.81 65.89 19.95L65.89 19.95L65.89 19.95Q66.11 20.10 66.39 20.14L66.39 20.14L66.39 20.14Q66.68 20.19 67.01 20.19L67.01 20.19L67.95 20.19L67.95 21ZM80.01 17.23L77.63 17.23L77.63 18.81L77.63 18.81Q77.63 19.26 77.75 19.53L77.75 19.53L77.75 19.53Q77.88 19.81 78.09 19.95L78.09 19.95L78.09 19.95Q78.30 20.10 78.60 20.14L78.60 20.14L78.60 20.14Q78.89 20.19 79.21 20.19L79.21 20.19L79.46 20.19L79.46 21L73.66 21L73.66 20.19L74.21 20.19L74.21 20.19Q74.54 20.19 74.82 20.14L74.82 20.14L74.82 20.14Q75.11 20.10 75.32 19.95L75.32 19.95L75.32 19.95Q75.53 19.81 75.66 19.53L75.66 19.53L75.66 19.53Q75.79 19.26 75.79 18.81L75.79 18.81L75.79 17.23L69.86 17.23L69.86 16.44L75.80 7.26L77.63 7.26L77.63 16.15L80.01 16.15L80.01 17.23ZM75.79 16.15L75.79 12.59L75.79 12.59Q75.79 12.17 75.80 11.66L75.80 11.66L75.80 11.66Q75.80 11.15 75.82 10.63L75.82 10.63L75.82 10.63Q75.83 10.10 75.86 9.58L75.86 9.58L75.86 9.58Q75.88 9.06 75.92 8.61L75.92 8.61L75.92 8.61Q75.85 8.74 75.73 8.96L75.73 8.96L75.73 8.96Q75.61 9.18 75.45 9.45L75.45 9.45L75.45 9.45Q75.30 9.73 75.12 10.03L75.12 10.03L75.12 10.03Q74.95 10.33 74.78 10.61L74.78 10.61L74.78 10.61Q74.60 10.90 74.45 11.15L74.45 11.15L74.45 11.15Q74.30 11.40 74.19 11.57L74.19 11.57L71.24 16.15L75.79 16.15Z" fill="#000000"/></g></svg>